<svg width="636" height="404" viewBox="0 0 636 404" fill="none" xmlns="http://www.w3.org/2000/svg">
<path d="M220.106 68.3226C222.767 67.1808 225.612 69.6095 227.063 72.1157C228.515 74.6218 229.686 77.6505 232.337 78.8117C234.398 79.7116 236.769 79.1987 239.023 79.2858C245.942 79.5567 251.302 85.527 254.409 91.7198C256.344 95.5903 257.757 100.032 256.47 104.144C255.337 107.763 252.289 110.453 249.116 112.524C242.738 116.791 235.177 118.938 227.508 118.659C223.697 118.485 219.962 117.531 216.533 115.857C213.105 114.183 210.056 111.823 207.575 108.924C203.85 104.357 201.866 98.5803 201.005 92.7552C200.144 86.9301 200.338 81.0082 200.531 75.125" fill="#263238"/>
<path d="M250.045 98.8225C249.996 98.8225 250.045 98.1935 249.928 97.1001C249.766 95.5458 249.331 94.0323 248.641 92.6297C247.629 90.5511 246.132 88.7459 244.277 87.3658C241.986 85.6911 239.335 84.5744 236.536 84.1049C233.585 83.5727 230.644 83.8436 228.002 83.2824C225.673 82.7729 223.521 81.6581 221.761 80.0505C220.581 78.9908 219.523 77.803 218.606 76.509C218.287 76.0542 218.045 75.6962 217.89 75.4349C217.807 75.3097 217.736 75.1769 217.677 75.0382C218.063 75.4693 218.425 75.9215 218.761 76.3929C219.728 77.6225 220.81 78.7566 221.993 79.7796C223.728 81.3106 225.833 82.3614 228.099 82.8276C230.644 83.3501 233.575 83.0695 236.624 83.6114C239.495 84.0907 242.209 85.2521 244.539 86.9981C246.436 88.4343 247.952 90.3151 248.951 92.4748C249.622 93.9243 250.016 95.4865 250.112 97.0807C250.144 97.5091 250.144 97.9393 250.112 98.3677C250.112 98.5218 250.089 98.675 250.045 98.8225Z" fill="#455A64"/>
<path d="M276.974 86.1755L266.784 124.319L246.097 102.064C236.576 95.842 225.331 92.7935 213.971 93.3553L181.788 91.8555L164.023 98.2515C159.744 99.8055 155.639 101.8 151.772 104.202L117.151 128.093C109.826 133.386 103.807 137.431 102.394 145.51C100.537 156.154 105.926 168.085 117.141 170.059L166.113 170.649L167.622 201.613L244.597 194.453L242.536 147.726C258.25 159.831 265.633 164.544 277.457 162.241C281.396 161.476 287.027 157.335 288.856 151.2C295.388 129.332 296.5 94.9326 296.5 94.9326L276.974 86.1755ZM156.252 140.914L160.723 139.647L161.004 141.263L156.252 140.914Z" fill="#0B9160"/>
<path d="M116.415 170.078H116.831H118.041H122.715L139.919 170.03H196.883L196.632 170.272C196.632 169.711 196.69 169.111 196.719 168.511C197.077 160.818 197.425 153.377 197.744 146.459L197.967 146.72C180.637 145.104 165.784 142.608 155.188 141.263C149.886 140.566 145.647 140.101 142.744 139.763L139.416 139.395L138.555 139.289L138.264 139.24H138.564L139.425 139.308L142.764 139.598C145.667 139.879 149.915 140.305 155.227 140.963C165.871 142.221 180.695 144.649 198.006 146.236H198.238V146.468C197.919 153.377 197.58 160.828 197.27 168.521C197.27 169.121 197.212 169.72 197.183 170.272V170.514H196.941L139.977 170.32L122.676 170.195L118.002 170.137H116.793C116.666 170.127 116.539 170.108 116.415 170.078Z" fill="#263238"/>
<path d="M117.402 136.995C117.642 136.827 117.907 136.697 118.186 136.608C118.923 136.308 119.679 136.059 120.45 135.863C125.604 134.544 131.058 135.093 135.845 137.411C136.563 137.753 137.256 138.148 137.916 138.592C138.172 138.736 138.406 138.915 138.613 139.124C138.555 139.201 137.519 138.524 135.71 137.731C130.937 135.644 125.629 135.113 120.537 136.211C118.592 136.627 117.431 137.082 117.402 136.995Z" fill="#263238"/>
<path d="M128.056 128.103C128.803 128.387 129.512 128.764 130.165 129.225C131.791 130.246 133.341 131.384 134.8 132.631C136.484 134.093 138.032 135.534 138.671 136.918C138.939 137.459 139.075 138.056 139.067 138.66C139.075 138.882 139.025 139.102 138.922 139.298C138.909 138.526 138.717 137.768 138.361 137.082C137.302 135.525 135.994 134.152 134.491 133.018C132.797 131.567 131.172 130.367 129.981 129.525C129.3 129.107 128.656 128.631 128.056 128.103Z" fill="#263238"/>
<path d="M161.381 141.446C161.01 140.462 160.718 139.449 160.51 138.417C160.026 136.54 159.388 133.937 158.575 131.093C157.762 128.248 156.969 125.693 156.301 123.874C155.633 122.055 155.188 120.971 155.256 120.913C155.438 121.135 155.585 121.383 155.691 121.648C155.943 122.132 156.262 122.848 156.659 123.748C157.605 126.102 158.412 128.509 159.078 130.957C159.862 133.86 160.442 136.443 160.839 138.34C161.104 139.359 161.285 140.398 161.381 141.446Z" fill="#263238"/>
<path d="M243.532 169.401C243.397 169.401 242.845 157.79 242.294 143.44C241.742 129.09 241.413 117.449 241.558 117.449C241.704 117.449 242.255 129.061 242.797 143.42C243.339 157.78 243.678 169.401 243.532 169.401Z" fill="#263238"/>
<g opacity="0.3">
<path d="M241.975 122.781C242.778 127.774 244.877 132.457 246.609 137.208C248.341 141.959 249.512 147.136 248.487 152.081L242.681 147.426" fill="black"/>
</g>
<path d="M271.835 144.814C271.655 144.593 271.505 144.349 271.39 144.088C271.129 143.604 270.8 142.888 270.423 141.988C268.422 137.285 267.216 132.282 266.852 127.183C266.784 126.216 266.765 125.413 266.775 124.871C266.76 124.572 266.786 124.272 266.852 123.981C267.039 125.017 267.165 126.064 267.23 127.116C267.767 132.156 268.941 137.107 270.723 141.853C271.419 143.672 271.903 144.775 271.835 144.814Z" fill="#263238"/>
<path opacity="0.3" d="M156.62 124.077L157.868 140.459L160.723 139.646L156.62 124.077Z" fill="black"/>
<path d="M240.213 123.981C240.124 123.959 240.039 123.923 239.962 123.874L239.236 123.526C238.313 123.084 237.359 122.708 236.382 122.403C232.786 121.263 228.956 121.07 225.264 121.842C222.732 122.406 220.313 123.387 218.103 124.745C215.694 126.158 213.265 127.957 210.633 129.709C207.903 131.635 204.858 133.069 201.634 133.947C198.153 134.817 194.531 134.965 190.99 134.383C189.199 134.067 187.44 133.588 185.736 132.95C184.09 132.304 182.512 131.497 181.024 130.541C179.596 129.603 178.267 128.524 177.056 127.319C175.913 126.16 174.85 124.925 173.873 123.623C171.938 121.087 170.322 118.562 168.657 116.298C167.171 114.162 165.433 112.213 163.481 110.492C161.856 109.104 160.024 107.977 158.052 107.154C156.56 106.535 154.973 106.178 153.359 106.099C151.982 106.068 150.609 106.265 149.295 106.679L149.547 106.573L150.302 106.312C150.64 106.205 151.076 106.128 151.579 106.021C152.172 105.939 152.77 105.9 153.369 105.905C155.008 105.936 156.627 106.264 158.149 106.873C160.168 107.682 162.046 108.805 163.713 110.202C165.705 111.911 167.476 113.861 168.986 116.007C170.68 118.262 172.315 120.787 174.241 123.284C175.211 124.567 176.265 125.786 177.395 126.932C178.578 128.105 179.875 129.159 181.266 130.077C182.728 131.01 184.277 131.801 185.891 132.438C187.565 133.067 189.295 133.533 191.058 133.831C194.536 134.409 198.097 134.268 201.518 133.415C204.694 132.557 207.697 131.152 210.391 129.264C213.033 127.541 215.452 125.751 217.91 124.329C220.162 122.96 222.628 121.979 225.206 121.426C228.955 120.671 232.838 120.922 236.459 122.152C237.434 122.481 238.382 122.885 239.294 123.361L239.991 123.758L240.213 123.981Z" fill="#FAFAFA"/>
<path d="M259.111 116.075C259.203 116.465 259.239 116.866 259.218 117.265C259.235 118.362 259.144 119.457 258.947 120.536C258.655 122.14 258.137 123.694 257.408 125.152C256.514 126.925 255.445 128.604 254.215 130.164C251.966 133.016 249.093 135.313 245.816 136.879C244.832 137.349 243.813 137.741 242.768 138.05C242.39 138.184 241.997 138.272 241.597 138.311C241.597 138.215 243.223 137.799 245.661 136.56C248.828 134.933 251.609 132.646 253.818 129.854C255.029 128.32 256.092 126.674 256.992 124.939C257.723 123.526 258.263 122.023 258.598 120.468C258.852 119.015 259.023 117.548 259.111 116.075Z" fill="#FAFAFA"/>
<path d="M270.819 162.26C270.819 162.26 270.684 162.212 270.452 162.057C270.115 161.849 269.791 161.62 269.484 161.37C268.303 160.453 267.258 159.375 266.378 158.167C263.522 154.109 261.997 149.263 262.014 144.301C262.115 139.389 262.96 134.522 264.52 129.864C265.072 128.064 265.565 126.632 265.914 125.645C266.077 125.125 266.277 124.617 266.514 124.126C266.416 124.661 266.281 125.188 266.107 125.703C265.788 126.796 265.362 128.228 264.859 129.961C263.413 134.608 262.625 139.435 262.517 144.301C262.495 149.174 263.93 153.942 266.639 157.993C267.83 159.6 269.237 161.036 270.819 162.26Z" fill="#FAFAFA"/>
<path d="M293.636 118.92C293.335 119.128 293.01 119.3 292.668 119.433C292.049 119.723 291.149 120.12 290.008 120.546C287.017 121.687 283.831 122.226 280.631 122.133C277.4 122.008 274.286 120.893 271.71 118.939C270.944 118.345 270.261 117.652 269.678 116.878C269.446 116.609 269.256 116.305 269.116 115.978C269.965 116.962 270.908 117.86 271.932 118.659C274.488 120.467 277.512 121.499 280.641 121.629C283.782 121.713 286.912 121.231 289.882 120.207C292.223 119.452 293.597 118.843 293.636 118.92Z" fill="#FAFAFA"/>
<path d="M149.663 140.285C149.576 140.285 149.189 138.776 148.289 136.415C145.941 130.194 142.204 124.591 137.364 120.033C135.516 118.291 134.258 117.333 134.307 117.265C134.654 117.423 134.979 117.624 135.274 117.865C136.096 118.467 136.884 119.113 137.635 119.801C142.665 124.268 146.458 129.957 148.647 136.318C148.981 137.27 149.265 138.239 149.498 139.221C149.595 139.568 149.65 139.925 149.663 140.285Z" fill="#FAFAFA"/>
<path d="M160.965 141.949C160.907 142.132 160.822 142.305 160.713 142.462C160.441 142.942 160.134 143.402 159.794 143.836C158.506 145.433 156.906 146.75 155.091 147.707C152.411 149.097 149.522 150.041 146.538 150.503C143.199 151.074 139.474 151.306 135.652 151.926C133.79 152.213 131.958 152.663 130.175 153.271C128.526 153.857 126.951 154.633 125.482 155.583C122.993 157.205 120.827 159.275 119.096 161.689C117.941 163.331 116.992 165.109 116.27 166.982C115.748 168.308 115.583 169.082 115.525 169.062C115.536 168.871 115.572 168.683 115.631 168.501C115.746 167.962 115.898 167.432 116.086 166.914C116.746 164.991 117.661 163.166 118.805 161.486C120.524 158.997 122.705 156.862 125.23 155.196C126.723 154.213 128.328 153.41 130.01 152.806C131.818 152.184 133.676 151.721 135.565 151.423C139.435 150.803 143.151 150.59 146.46 150.049C149.403 149.612 152.26 148.717 154.927 147.397C156.717 146.494 158.316 145.256 159.639 143.749C160.549 142.627 160.916 141.92 160.965 141.949Z" fill="#FAFAFA"/>
<path d="M181.624 144.61C181.778 144.917 181.892 145.242 181.962 145.578C182.216 146.46 182.407 147.359 182.533 148.268C182.722 149.621 182.803 150.986 182.775 152.351C182.708 155.705 181.981 159.013 180.637 162.086C180.093 163.338 179.446 164.542 178.701 165.685C178.205 166.458 177.656 167.195 177.056 167.891C176.621 168.375 176.379 168.637 176.35 168.607C176.321 168.578 177.211 167.466 178.401 165.501C179.086 164.344 179.69 163.141 180.211 161.902C180.83 160.383 181.326 158.817 181.691 157.219C182.033 155.61 182.24 153.975 182.311 152.332C182.364 150.992 182.319 149.65 182.175 148.316C181.924 146.013 181.527 144.63 181.624 144.61Z" fill="#FAFAFA"/>
<path d="M241.926 159.28C239.845 158.391 237.66 157.767 235.424 157.422C233.163 157.237 230.889 157.328 228.65 157.693C229.254 157.379 229.91 157.176 230.586 157.093C233.826 156.471 237.18 156.87 240.184 158.235C240.823 158.475 241.413 158.829 241.926 159.28Z" fill="#FAFAFA"/>
<path d="M287.056 62.1687L277.322 86.34L295.639 94.5455L300.342 73.9931L287.056 62.1687Z" fill="#FFBE9D"/>
<path d="M308.073 86.0303L291.623 65.6133C288.304 61.0268 283.021 53.6438 282.779 53.0342C282.441 52.0666 282.315 45.4673 282.47 43.7933C282.462 41.6452 282.323 39.4995 282.054 37.3683L268.507 42.5064L265.614 32.056L263.756 32.6366C263.756 32.6366 258.85 41.1227 260.369 45.9512C261.888 50.7796 268.304 52.9665 269.891 53.9438C271.477 54.9211 277.506 57.5143 284.308 67.7808L285.402 69.3677L288.159 73.3544L300.738 91.449C301.084 91.9622 301.53 92.4 302.049 92.736C302.569 93.072 303.151 93.2992 303.761 93.4038C304.37 93.5085 304.995 93.4885 305.597 93.345C306.199 93.2015 306.765 92.9375 307.262 92.5689C307.759 92.2004 308.176 91.7349 308.488 91.2007C308.8 90.6664 309 90.0745 309.077 89.4606C309.153 88.8468 309.105 88.2237 308.934 87.6291C308.763 87.0345 308.474 86.4808 308.083 86.0012L308.073 86.0303Z" fill="#455A64"/>
<path d="M275.764 39.71L272.223 29.7241L273.5 29.308C273.5 29.308 279.751 33.1785 281.096 37.6876L275.764 39.71Z" fill="#455A64"/>
<path d="M271.981 52.8988L272.135 52.831L272.561 52.6375L274.158 51.9215L279.964 49.2895L279.818 49.2024C279.785 49.7922 279.785 50.3834 279.818 50.9732C279.829 51.6403 279.974 52.2984 280.244 52.9085C280.912 54.0503 281.725 55.1727 282.557 56.3726C284.231 58.7432 286.089 61.3171 288.053 63.9878C288.336 64.3061 288.529 64.6932 288.614 65.1102C288.659 65.4106 288.631 65.7173 288.532 66.0045C288.434 66.2917 288.267 66.5508 288.047 66.7597C287.826 66.9687 287.559 67.1214 287.267 67.2049C286.975 67.2883 286.667 67.3 286.369 67.239C285.995 67.1537 285.657 66.9542 285.402 66.6681C285.16 66.3681 284.918 66.0101 284.676 65.7005L283.254 63.7652L278.348 57.1467C278.004 56.6963 277.597 56.2986 277.138 55.9662C276.712 55.6468 276.296 55.3759 275.909 55.1146C275.125 54.6115 274.429 54.2051 273.858 53.8858C273.287 53.5664 272.832 53.3245 272.532 53.16L272.174 52.9859H272.048C272.048 52.9859 272.048 52.9859 272.165 53.0536L272.503 53.2568L273.8 54.0212C274.371 54.3599 275.048 54.776 275.822 55.2888C276.209 55.5501 276.625 55.8307 277.032 56.15C277.48 56.4739 277.875 56.8656 278.203 57.3112L283.041 63.9588L284.453 65.894C284.695 66.223 284.918 66.5423 285.189 66.8616C285.494 67.1896 285.893 67.4159 286.331 67.5099C286.669 67.5808 287.02 67.5687 287.354 67.4746C287.687 67.3806 287.992 67.2074 288.244 66.9698C288.496 66.7322 288.687 66.4373 288.8 66.1101C288.913 65.783 288.946 65.4333 288.895 65.0909C288.802 64.6325 288.592 64.2059 288.285 63.8523C286.35 61.1817 284.415 58.6175 282.77 56.2468C281.947 55.0566 281.115 53.9245 280.467 52.8214C280.215 52.2567 280.074 51.6491 280.051 51.0313C280.012 50.4481 280.012 49.863 280.051 49.2799V49.1154L279.906 49.1831L274.1 51.9505L272.552 52.7053L272.155 52.8988H271.981Z" fill="#263238"/>
<g opacity="0.3">
<path d="M270.723 48.0316L276.809 45.777L276.77 42.371L270.626 44.7126L270.723 48.0316Z" fill="black"/>
</g>
<path d="M275.474 42.1678C275.224 42.9814 275.141 43.8373 275.232 44.6837C275.159 45.5301 275.258 46.3825 275.522 47.1898C275.779 46.3776 275.861 45.5203 275.764 44.674C275.837 43.8276 275.738 42.9752 275.474 42.1678Z" fill="#263238"/>
<path d="M273.626 42.8451C273.377 43.659 273.298 44.5153 273.393 45.3609C273.315 46.2074 273.414 47.0609 273.684 47.8671C273.934 47.0535 274.013 46.1969 273.916 45.3512C273.994 44.5048 273.895 43.6512 273.626 42.8451Z" fill="#263238"/>
<path d="M271.864 43.2805C271.613 44.0939 271.531 44.95 271.623 45.7963C271.55 46.6428 271.649 47.4951 271.913 48.3025C272.163 47.4889 272.245 46.633 272.155 45.7867C272.227 44.9403 272.129 44.0879 271.864 43.2805Z" fill="#263238"/>
<path d="M277.951 84.782L278.609 80.0503L279.054 67.4711L278.57 58.6754C278.57 58.6754 281.473 58.898 283.089 62.6911C284.705 66.4842 284.734 72.2802 284.734 72.2802C284.734 72.2802 297.023 77.1184 292.688 88.7299" fill="#FFBE9D"/>
<path d="M294.584 65.5942C294.695 64.6139 294.499 63.6233 294.023 62.7591C293.706 62.3042 293.3 61.9186 292.829 61.6258C292.358 61.333 291.833 61.1391 291.285 61.056C290.294 60.8627 289.276 60.8627 288.285 61.056L290.598 64.2782C290.13 66.2185 289.787 68.1869 289.572 70.1711C289.446 71.1871 289.456 72.4547 290.337 72.9772C290.719 73.1481 291.146 73.1905 291.554 73.098C291.962 73.0055 292.33 72.7832 292.601 72.4644C293.119 71.7966 293.477 71.0186 293.646 70.1904C294.13 68.6983 294.445 67.1566 294.584 65.5942Z" fill="#FFBE9D"/>
<path d="M298.058 69.3193C298.159 68.3393 297.964 67.3516 297.497 66.4841C297.179 66.0282 296.771 65.6419 296.299 65.3491C295.826 65.0562 295.299 64.863 294.749 64.7811C293.762 64.5868 292.746 64.5868 291.759 64.7811L294.062 68.0033C293.599 69.9446 293.256 71.9126 293.036 73.8962C292.92 74.8638 292.92 76.1798 293.81 76.7023C294.192 76.8732 294.62 76.9155 295.028 76.8231C295.436 76.7306 295.803 76.5083 296.075 76.1894C296.59 75.5212 296.944 74.743 297.11 73.9155C297.597 72.4237 297.915 70.882 298.058 69.3193Z" fill="#FFBE9D"/>
<path d="M301.687 72.9963C301.795 72.0129 301.599 71.0201 301.126 70.1515C300.809 69.6966 300.402 69.311 299.932 69.0182C299.461 68.7254 298.935 68.5316 298.387 68.4485C297.396 68.2646 296.379 68.2646 295.388 68.4485L297.7 71.6707C297.232 73.6109 296.89 75.5793 296.674 77.5635C296.549 78.5892 296.558 79.8471 297.439 80.3793C297.822 80.5491 298.25 80.5899 298.658 80.4957C299.066 80.4015 299.433 80.1773 299.703 79.8568C300.216 79.1712 300.564 78.3764 300.719 77.5345C301.208 76.0621 301.533 74.5401 301.687 72.9963Z" fill="#FFBE9D"/>
<path d="M294.333 63.3201C294.741 64.7161 294.805 66.1905 294.517 67.6163C294.393 69.0635 293.925 70.4602 293.152 71.69C293.007 71.632 293.704 69.8516 294.023 67.5389C294.342 65.2263 294.188 63.3394 294.333 63.3201Z" fill="#EB996E"/>
<path d="M298.049 68.371C298.319 69.6191 298.322 70.9105 298.057 72.1598C297.792 73.4092 297.264 74.588 296.51 75.6185C296.375 75.5411 297.158 74.0509 297.565 72.0576C297.971 70.0643 297.894 68.3806 298.049 68.371Z" fill="#EB996E"/>
<path d="M283.302 63.3201C283.545 64.15 283.723 64.9976 283.834 65.8553C284.115 67.4518 284.492 69.7258 284.918 72.4061L284.763 72.2126C286.581 72.8425 288.24 73.8615 289.624 75.1984C291.007 76.5354 292.083 78.1582 292.775 79.9536C293.365 81.4304 293.693 82.9989 293.743 84.5885C293.77 85.6547 293.67 86.7203 293.443 87.7623C293.389 88.1507 293.278 88.5289 293.114 88.8848C293.321 87.4689 293.411 86.0385 293.385 84.6079C293.288 83.0668 292.934 81.5527 292.34 80.1277C291.632 78.3776 290.556 76.8001 289.185 75.5025C287.872 74.249 286.309 73.2863 284.598 72.677H284.463V72.5416C284.076 69.8612 283.766 67.5776 283.563 65.9617C283.413 65.0886 283.325 64.2057 283.302 63.3201Z" fill="#EB996E"/>
<path d="M282.025 37.3394L281.812 37.4264L281.192 37.6587L278.909 38.5102L271.4 41.4131L263.901 44.3159L261.617 45.1675L260.988 45.39C260.853 45.4481 260.776 45.4674 260.776 45.4577L260.979 45.361L261.588 45.0997L263.843 44.1321C265.778 43.3677 268.4 42.3226 271.323 41.2292C274.245 40.1358 276.916 39.1101 278.86 38.4231C279.828 38.0844 280.612 37.8135 281.163 37.6393L281.792 37.4361C281.864 37.3913 281.942 37.3586 282.025 37.3394Z" fill="#263238"/>
<path d="M197.986 149.932C197.986 149.932 210.043 146.633 212.104 146.555C213.681 146.507 222.825 148.055 227.034 148.781C227.823 148.899 228.534 149.319 229.017 149.954C229.499 150.588 229.715 151.386 229.618 152.177C229.598 152.275 229.572 152.372 229.541 152.468C229.358 152.951 229.043 153.374 228.633 153.688C228.223 154.003 227.733 154.197 227.218 154.248C227.826 154.55 228.324 155.036 228.64 155.637C228.956 156.238 229.075 156.924 228.979 157.596C228.65 159.976 225.699 160.044 225.699 160.044C225.699 160.044 225.844 160.199 226.047 160.47C226.34 160.887 226.517 161.373 226.562 161.881C226.607 162.388 226.517 162.898 226.303 163.36C226.088 163.822 225.755 164.219 225.339 164.511C224.922 164.804 224.436 164.982 223.928 165.027L222.583 165.124C223.032 165.394 223.398 165.782 223.641 166.247C223.883 166.711 223.993 167.233 223.957 167.756C223.435 170.881 216.294 170.407 216.294 170.407L197.115 170.04L197.986 149.932Z" fill="#FFBE9D"/>
<path d="M225.98 144.833C225.747 145.801 225.167 148.016 223.261 148.703L213.584 146.846C213.584 146.846 221.2 145.452 222.409 144.368C222.896 143.928 223.431 143.545 224.006 143.227C224.246 143.105 224.516 143.056 224.784 143.085C225.051 143.114 225.305 143.219 225.514 143.389C225.723 143.559 225.878 143.786 225.96 144.042C226.043 144.298 226.05 144.573 225.98 144.833Z" fill="#FFBE9D"/>
<path d="M218.19 147.484C218.19 147.649 220.126 148.142 222.574 148.452C225.022 148.761 227.015 148.994 227.044 148.81C227.073 148.626 225.109 148.152 222.661 147.842C220.213 147.533 218.219 147.31 218.19 147.484Z" fill="#EB996E"/>
<path d="M219.545 153.232C219.545 153.397 221.171 153.958 223.309 154.2C225.448 154.442 227.18 154.287 227.18 154.113C227.18 153.938 225.467 153.813 223.367 153.571C221.267 153.329 219.584 153.058 219.545 153.232Z" fill="#EB996E"/>
<path d="M214.707 151.79C214.552 151.858 214.658 152.419 215.152 152.855C215.645 153.29 216.207 153.329 216.255 153.164C216.303 153 215.955 152.719 215.578 152.38C215.2 152.042 214.871 151.713 214.707 151.79Z" fill="#EB996E"/>
<path d="M217.503 159.222C217.503 159.396 219.351 159.764 221.654 160.035C223.957 160.305 225.864 160.393 225.893 160.218C225.922 160.044 224.054 159.686 221.732 159.406C219.409 159.125 217.552 159.048 217.503 159.222Z" fill="#EB996E"/>
<path d="M212.384 155.786C212.307 155.786 212.133 155.922 212.026 156.299C211.902 156.8 211.974 157.331 212.23 157.78C212.482 158.24 212.901 158.586 213.401 158.747C213.768 158.844 214.01 158.747 214.02 158.699C214.029 158.651 213.226 158.293 212.781 157.489C212.336 156.686 212.549 155.844 212.384 155.786Z" fill="#EB996E"/>
<path d="M215.152 165.018C215.152 165.192 216.855 165.385 218.955 165.444C221.054 165.502 222.767 165.444 222.767 165.24C222.767 165.037 221.074 164.873 218.974 164.815C216.874 164.756 215.162 164.844 215.152 165.018Z" fill="#EB996E"/>
<path d="M210.207 161.138C210.13 161.138 209.975 161.302 209.927 161.679C209.89 162.169 210.001 162.657 210.246 163.083C210.827 164.05 211.581 164.486 211.688 164.379C211.794 164.273 211.281 163.586 210.798 162.773C210.314 161.96 210.362 161.186 210.207 161.138Z" fill="#EB996E"/>
<path d="M160.287 54.5922C159.9 51.4861 156.494 49.3089 153.408 49.754C151.873 50.0665 150.457 50.8036 149.322 51.8813C148.186 52.9591 147.375 54.3342 146.983 55.8501C146.231 58.9082 146.574 62.1329 147.95 64.9651C148.918 67.21 150.621 69.4259 153.03 69.9194C154.15 70.0676 155.289 69.9257 156.337 69.5071C157.386 69.0886 158.31 68.4076 159.02 67.5293C160.422 65.757 161.503 63.7527 162.213 61.6075L160.287 54.5922Z" fill="#263238"/>
<path d="M164.216 53.9147C163.702 53.6431 163.109 53.5631 162.542 53.689C161.974 53.8148 161.47 54.1384 161.12 54.6017C160.445 55.5517 160.105 56.6985 160.152 57.8626C160.097 59.7934 160.467 61.7125 161.236 63.4845C161.317 63.7628 161.458 64.0202 161.649 64.239C161.839 64.4578 162.075 64.6328 162.339 64.7521C162.61 64.8133 162.893 64.7947 163.154 64.6985C163.415 64.6024 163.643 64.4328 163.81 64.2103C164.142 63.7617 164.364 63.2413 164.458 62.6911C165.232 59.4578 165.068 56.0707 163.984 52.9277" fill="#0B9160"/>
<path d="M219.042 38.9745C224.48 36.3136 227.605 33.5558 227.15 31.3012C226.696 29.0467 215.752 25.5535 213.188 24.6053C207.14 22.3604 201.421 27.7017 191.9 29.6176C173.35 33.3429 159.068 40.1357 159.968 44.79C160.413 47.0349 164.322 48.3702 170.322 48.7379" fill="#0B9160"/>
<g opacity="0.4">
<path d="M215.8 39.4583C220.638 37.0973 223.541 34.6202 222.99 32.6849C221.519 27.2081 208.166 27.8468 191.716 31.1948C175.266 34.5428 162.619 40.484 163.452 44.6351C163.848 46.6284 167.322 47.8089 172.625 48.1379" fill="black"/>
</g>
<path d="M172.654 46.3963C172.11 43.342 172.184 40.2096 172.871 37.1842C173.557 34.1589 174.843 31.3018 176.653 28.7817C178.462 26.2616 180.758 24.1295 183.405 22.5115C186.052 20.8934 188.997 19.8221 192.064 19.3608C204.344 17.532 215.791 26.1342 218.297 38.2779C220.493 48.9218 222.467 59.7109 222.632 63.6491C223.116 75.5316 216.41 80.5245 213.672 82.034C212.679 82.464 211.645 82.7883 210.585 83.0016C210.574 83.0039 210.565 83.0082 210.556 83.0144C210.547 83.0205 210.54 83.0284 210.535 83.0375C210.529 83.0465 210.526 83.0566 210.524 83.0671C210.523 83.0776 210.524 83.0882 210.527 83.0984L213.894 96.5871C215.568 105.46 210.991 113.685 202.157 115.466C193.322 117.246 185.92 110.763 184.072 101.919L172.654 46.3963Z" fill="#FFBE9D"/>
<path d="M214.668 45.6803C214.76 46.1626 214.665 46.6618 214.403 47.0768C214.141 47.4919 213.73 47.7917 213.255 47.9155C213.023 47.9813 212.781 48 212.541 47.9706C212.302 47.9412 212.071 47.8643 211.862 47.7444C211.653 47.6245 211.47 47.4641 211.324 47.2725C211.177 47.0808 211.071 46.8619 211.01 46.6286C210.918 46.1463 211.013 45.6471 211.276 45.2321C211.538 44.8171 211.948 44.5172 212.423 44.3934C212.655 44.3277 212.898 44.3089 213.137 44.3383C213.376 44.3677 213.607 44.4446 213.816 44.5645C214.026 44.6844 214.209 44.8448 214.355 45.0365C214.501 45.2281 214.608 45.447 214.668 45.6803Z" fill="#263238"/>
<path d="M215.732 41.6548C215.549 41.9355 213.933 41.1807 211.939 41.5871C209.946 41.9935 208.688 43.2805 208.427 43.0869C208.166 42.8934 208.427 42.516 208.988 41.9258C209.728 41.1499 210.692 40.6253 211.746 40.426C212.783 40.213 213.86 40.335 214.823 40.7743C215.568 41.1226 215.82 41.5194 215.732 41.6548Z" fill="#263238"/>
<path d="M195.064 49.6185C195.156 50.1008 195.061 50.6 194.799 51.015C194.537 51.43 194.126 51.7298 193.651 51.8537C193.417 51.9225 193.172 51.9436 192.93 51.9158C192.688 51.8879 192.454 51.8118 192.242 51.6917C192.03 51.5717 191.844 51.4102 191.695 51.217C191.547 51.0237 191.439 50.8026 191.377 50.5668C191.285 50.0845 191.38 49.5853 191.642 49.1703C191.905 48.7552 192.315 48.4554 192.79 48.3315C193.024 48.2614 193.269 48.2392 193.512 48.2664C193.755 48.2936 193.989 48.3696 194.202 48.4898C194.414 48.6101 194.6 48.772 194.748 48.966C194.896 49.16 195.004 49.3819 195.064 49.6185Z" fill="#263238"/>
<path d="M196.215 45.9608C196.041 46.2511 194.425 45.4963 192.432 45.893C190.439 46.2898 189.181 47.5961 188.91 47.3929C188.784 47.3058 188.91 46.822 189.471 46.2317C190.217 45.4634 191.179 44.9403 192.229 44.7319C193.266 44.5213 194.344 44.6467 195.306 45.0899C195.993 45.4383 196.293 45.8253 196.215 45.9608Z" fill="#263238"/>
<path d="M206.414 59.2948C207.398 58.7578 208.445 58.345 209.53 58.0659C210.033 57.9111 210.498 57.7079 210.498 57.3498C210.435 56.8158 210.213 56.3131 209.859 55.9081L207.566 52.3279C204.373 47.2285 201.944 42.9903 202.147 42.8645C202.35 42.7387 205.118 46.735 208.321 51.8731L210.546 55.4823C210.988 56.0296 211.224 56.7143 211.214 57.4176C211.177 57.612 211.097 57.7954 210.977 57.9532C210.858 58.1111 210.704 58.2391 210.527 58.3271C210.261 58.465 209.978 58.5659 209.685 58.6271C208.628 58.9902 207.529 59.2146 206.414 59.2948Z" fill="#263238"/>
<path d="M210.507 83.0306C210.507 83.0306 202.931 85.2078 192.122 81.3469C192.122 81.3469 197.212 90.9167 211.398 86.6592L210.507 83.0306Z" fill="#EB996E"/>
<path d="M206.53 64.2782C206.054 63.8765 205.484 63.6026 204.873 63.4824C204.262 63.3622 203.63 63.3996 203.037 63.5912C202.607 63.7181 202.206 63.931 201.86 64.217C201.514 64.5031 201.23 64.8564 201.025 65.2555C200.821 65.6406 200.743 66.0794 200.8 66.5111C200.857 66.9428 201.047 67.346 201.344 67.6649C201.734 67.9594 202.204 68.1298 202.692 68.1539C203.181 68.1781 203.665 68.0549 204.082 67.8004C204.961 67.2832 205.725 66.5916 206.327 65.7683C206.525 65.5658 206.679 65.3255 206.782 65.062C206.832 64.9378 206.843 64.8017 206.816 64.6708C206.788 64.54 206.723 64.4202 206.627 64.3266" fill="#EB996E"/>
<path d="M200.821 61.8591C201.141 61.772 201.576 63.9395 203.724 65.1007C205.872 66.2618 208.146 65.5651 208.224 65.8651C208.282 65.9909 207.798 66.3876 206.83 66.6102C205.564 66.8841 204.241 66.7025 203.095 66.0973C202 65.512 201.172 64.5281 200.783 63.3493C200.531 62.459 200.667 61.8785 200.821 61.8591Z" fill="#263238"/>
<path d="M195.683 39.5262C195.596 40.1068 193.554 40.2519 191.271 41.0067C188.987 41.7614 187.216 42.7774 186.81 42.3517C186.626 42.1485 186.858 41.5679 187.516 40.8906C188.405 40.0375 189.479 39.4002 190.653 39.0277C191.827 38.6553 193.072 38.5577 194.29 38.7424C195.248 38.9166 195.712 39.2553 195.683 39.5262Z" fill="#263238"/>
<path d="M213.971 36.662C213.71 37.1845 212.239 36.991 210.585 37.3006C208.93 37.6102 207.595 38.2682 207.169 37.8038C206.985 37.6006 207.111 37.1071 207.643 36.5555C208.355 35.869 209.255 35.4102 210.229 35.2379C211.203 35.0655 212.206 35.1874 213.11 35.5879C213.788 35.975 214.078 36.4104 213.971 36.662Z" fill="#263238"/>
<path d="M200.696 27.3148C199.941 29.0712 198.807 30.6388 197.375 31.9052C195.943 33.1716 194.248 34.1054 192.413 34.6397C190.003 35.3267 187.139 35.4525 185.639 37.4362C184.527 38.8876 184.527 40.8616 184.275 42.671C183.878 45.4288 184.575 48.6026 182.475 50.4121C180.83 51.8345 179.282 51.7958 178.276 53.7213C177.269 55.6469 177.463 58.3659 177.879 60.6205C178.295 62.8751 178.847 66.4263 176.998 67.8584C175.276 59.6916 170.864 50.9539 169.151 42.7871C168.818 41.5852 168.713 40.3314 168.841 39.0908C169.325 36.3234 171.976 34.5236 174.483 33.2851C181.595 29.7242 189.432 27.8954 197.173 26.0956" fill="#263238"/>
<path d="M222.09 30.0433C222.09 30.0433 213.323 11.2616 212.713 10.3811C212.104 9.50055 204.75 1.99177 190.806 2.21432L179.688 4.44954C179.688 4.44954 164.922 12.7034 162.813 17.1158C160.704 21.5282 163.219 40.4549 163.219 40.4549L193.032 27.421L215.287 28.3306L222.09 30.0433Z" fill="#0B9160"/>
<path d="M186.713 0.685513L189.781 0.0662283C190.394 -0.0606995 191.031 -0.0045387 191.612 0.227722C192.194 0.459983 192.694 0.858094 193.051 1.37253C193.66 2.2877 194.111 3.29832 194.387 4.3625C195.306 7.77822 200.85 31.3303 200.85 31.3303L186.781 33.4881L181.353 4.12059L176.863 6.1139L176.776 5.24304C176.718 4.71477 176.823 4.18143 177.076 3.71418C177.252 3.39315 177.496 3.1138 177.789 2.89509C178.083 2.67638 178.421 2.52343 178.779 2.44659L186.713 0.685513Z" fill="#0B9160"/>
<path d="M218.577 32.8011L215.732 26.2502L192.577 23.8312L167.932 36.8071L169.48 44.5481C169.48 44.5481 189.752 31.2819 218.577 32.8011Z" fill="#455A64"/>
<path d="M213.188 24.6054L214.291 25.3118L222.748 29.3274C222.748 29.3274 207.469 27.3922 192.5 30.5467C177.531 33.7011 161.381 42.2356 161.381 42.2356L170.09 34.2623C171.319 32.2763 172.934 30.5563 174.838 29.2037C176.743 27.851 178.898 26.8929 181.179 26.3859L199.941 22.2347C202.196 21.7316 204.528 21.682 206.802 22.089C209.077 22.496 211.247 23.3514 213.188 24.6054Z" fill="#0B9160"/>
<path d="M220.658 30.0338C220.658 30.0338 220.484 29.8984 220.106 29.7145C219.562 29.4401 218.992 29.2228 218.403 29.0662C216.242 28.4951 214.02 28.1896 211.785 28.1566C204.43 28.0453 197.103 29.0701 190.061 31.195C185.939 32.3368 181.982 33.3431 178.45 34.5914C175.352 35.7131 172.319 37.0052 169.364 38.4619C168.106 39.0908 166.993 39.7294 166.045 40.3294C165.174 40.7943 164.425 41.4572 163.858 42.2646C163.517 42.8056 163.386 43.4528 163.49 44.0838C163.587 44.5095 163.752 44.6837 163.771 44.674C163.658 44.2981 163.632 43.9012 163.696 43.5138C163.759 43.1264 163.911 42.7587 164.139 42.4388C164.725 41.7274 165.462 41.1556 166.296 40.7648C167.264 40.2036 168.377 39.623 169.635 39.0231C172.16 37.8619 175.257 36.5363 178.711 35.3171C182.166 34.0979 186.152 33.1399 190.323 31.9981C197.298 29.9107 204.533 28.8162 211.814 28.7469C214.01 28.7275 216.202 28.9383 218.355 29.3758C219.845 29.7048 220.609 30.1209 220.658 30.0338Z" fill="#263238"/>
<path d="M218.471 32.5883C221.151 38.5779 230.499 47.1027 221.538 55.3759C221.538 55.3759 218.713 41.8291 216.545 36.7684C215.995 35.2345 215.109 33.8428 213.952 32.6947" fill="#263238"/>
<path d="M172.518 43.7935C169.464 44.3833 166.755 46.127 164.953 48.6623C163.151 51.1977 162.395 54.3298 162.842 57.408C163.142 59.0046 163.81 60.5818 163.606 62.2461C163.403 63.9104 162.561 65.2167 162.165 66.7553C161.381 69.7936 161.197 74.7962 162.271 77.7668C164.729 84.8305 173.689 93.5392 181.807 91.9136" fill="#263238"/>
<path d="M178.527 86.0592C179.372 86.2215 180.244 86.1769 181.068 85.9292C181.892 85.6815 182.644 85.2381 183.259 84.6368C184.467 83.4077 185.331 81.8828 185.765 80.2147C186.527 77.5569 186.638 74.7548 186.089 72.045C185.54 69.3353 184.347 66.7974 182.611 64.6456C184.63 60.9966 185.715 56.9046 185.769 52.7343C185.823 48.5641 184.845 44.4453 182.92 40.7452L171.541 44.1126L178.527 86.0592Z" fill="#263238"/>
<path d="M160.413 61.5494C159.955 62.2271 159.337 62.782 158.613 63.1653C156.91 64.2228 154.894 64.6634 152.905 64.4135C150.91 64.1878 149.058 63.2702 147.67 61.8203C147.058 61.2531 146.664 60.4896 146.557 59.6625C146.922 60.3663 147.381 61.0173 147.921 61.5977C149.313 62.8902 151.077 63.7098 152.963 63.9394C154.851 64.1624 156.763 63.7903 158.43 62.875C159.707 62.159 160.346 61.4816 160.413 61.5494Z" fill="#455A64"/>
<path d="M159.542 60.0206C158.936 60.4049 158.252 60.6495 157.539 60.7366C155.828 61.0756 154.058 60.9728 152.397 60.4378C150.736 59.9028 149.239 58.9533 148.047 57.6789C147.523 57.1867 147.113 56.5855 146.847 55.9178C146.915 55.9178 147.37 56.5468 148.299 57.4273C149.509 58.5784 150.963 59.4422 152.552 59.9548C154.142 60.4674 155.827 60.6155 157.481 60.3883C158.749 60.2141 159.513 59.9432 159.542 60.0206Z" fill="#455A64"/>
<path d="M184.246 43.8805C184.277 44.2624 184.254 44.6467 184.178 45.0223C184.04 46.0602 183.797 47.0815 183.452 48.0703C182.331 51.3763 180.226 54.2603 177.419 56.3357C174.612 58.4112 171.237 59.5787 167.748 59.6818C166.702 59.7226 165.654 59.6545 164.622 59.4786C164.24 59.4398 163.865 59.3453 163.51 59.198C164.912 59.3318 166.321 59.3739 167.729 59.3238C171.121 59.1297 174.383 57.9521 177.116 55.9348C179.85 53.9175 181.938 51.1478 183.123 47.9639C183.577 46.6258 183.952 45.2624 184.246 43.8805Z" fill="#455A64"/>
<path d="M184.604 60.9398C184.604 60.9398 184.439 61.2108 184.043 61.6075C183.461 62.1703 182.811 62.658 182.107 63.0589C179.786 64.368 177.157 65.0359 174.492 64.9942C171.871 64.931 169.269 64.5277 166.751 63.7943C165.784 63.5234 165.009 63.2912 164.477 63.1073C164.193 63.0394 163.919 62.9319 163.664 62.788C164.736 62.938 165.796 63.1578 166.838 63.446C169.354 64.0726 171.93 64.423 174.521 64.491C177.105 64.5247 179.659 63.9304 181.962 62.759C182.881 62.2095 183.763 61.6019 184.604 60.9398Z" fill="#455A64"/>
<path d="M222.583 28.0888C222.351 28.0503 222.124 27.9854 221.906 27.8952L220.029 27.2179L213.13 24.7408L211.349 23.1442C210.748 22.5457 210.079 22.0197 209.356 21.5766C208.571 21.1419 207.704 20.875 206.811 20.7929C205.836 20.7583 204.86 20.8494 203.908 21.0638C199.96 21.7218 195.635 22.641 191.126 23.6861C186.936 24.6537 182.93 25.6213 179.272 26.589C178.382 26.7678 177.528 27.0949 176.747 27.5566C176.033 27.9851 175.414 28.5547 174.928 29.2306C174.028 30.6336 173.234 32.0464 172.48 33.2946L165.774 38.2489L163.926 39.5842C163.719 39.7475 163.499 39.8932 163.268 40.0196C163.45 39.8262 163.651 39.6512 163.868 39.4971L165.648 38.0844L172.151 33.0237V33.0817C172.905 31.8045 173.65 30.4208 174.579 28.95C175.093 28.2122 175.751 27.5867 176.515 27.1115C177.336 26.6455 178.228 26.3186 179.156 26.1438C182.814 25.1762 186.81 24.2086 191.019 23.241C195.528 22.1959 199.863 21.3057 203.84 20.638C204.816 20.4272 205.814 20.3459 206.811 20.3961C207.764 20.4853 208.687 20.7755 209.52 21.2477C210.267 21.712 210.956 22.2643 211.572 22.8926L213.323 24.5086H213.265L220.116 27.1308L221.964 27.8662C222.175 27.926 222.382 28.0003 222.583 28.0888Z" fill="#263238"/>
<path d="M185.165 24.8376C185.039 24.5261 184.948 24.2016 184.894 23.87C184.749 23.241 184.556 22.3411 184.323 21.2187C183.869 18.9834 183.269 15.887 182.63 12.51C182.33 10.7973 182.03 9.1717 181.759 7.67188C181.633 6.93648 181.517 6.23012 181.401 5.56245C181.383 5.43504 181.337 5.31307 181.268 5.20476C181.198 5.09646 181.106 5.00434 180.998 4.93464C180.889 4.86493 180.768 4.81925 180.64 4.8007C180.513 4.78214 180.383 4.79113 180.259 4.82706L177.772 5.79469C177.468 5.94827 177.142 6.05277 176.805 6.10433C177.075 5.90868 177.367 5.74624 177.676 5.62051C178.256 5.33022 179.059 4.9335 180.134 4.44968C180.306 4.39274 180.488 4.37311 180.668 4.39209C180.849 4.41107 181.023 4.46823 181.179 4.55976C181.336 4.6513 181.471 4.77512 181.576 4.92298C181.681 5.07084 181.753 5.23935 181.788 5.41731C181.924 6.08497 182.059 6.79134 182.204 7.52674C182.485 9.01688 182.785 10.6425 183.114 12.3649C183.743 15.7903 184.285 18.8964 184.652 21.1509C184.836 22.2734 184.981 23.1926 185.068 23.8216C185.152 24.1534 185.185 24.496 185.165 24.8376Z" fill="#263238"/>
<path d="M198.605 21.8477C198.163 20.9565 197.822 20.0184 197.589 19.0512C197.057 17.2901 196.448 14.8324 195.799 12.1133C195.151 9.3943 194.599 6.91717 194.222 5.12706C193.97 4.17607 193.801 3.2047 193.719 2.22418C194.085 3.16582 194.37 4.13697 194.57 5.12706C195.035 6.89782 195.645 9.35559 196.293 12.0746C196.941 14.7937 197.483 17.1063 197.938 19.0415C198.216 19.9628 198.439 20.8998 198.605 21.8477Z" fill="#263238"/>
<path d="M222.341 60.7364C224.327 60.6496 226.278 60.1832 228.089 59.3624C230.051 58.5235 231.761 57.1899 233.053 55.4919C233.762 54.4062 234.237 53.1845 234.447 51.9049C234.657 50.6252 234.597 49.3159 234.272 48.0605C233.991 46.7921 233.459 45.5926 232.708 44.5325C231.957 43.4723 231.002 42.5729 229.899 41.8871C227.971 40.9223 225.995 40.0599 223.977 39.3035C222.609 38.7136 221.39 37.828 220.406 36.7103C220.15 36.4125 219.926 36.0881 219.738 35.7426C219.622 35.5007 219.564 35.3653 219.584 35.3556C219.883 35.7956 220.206 36.2188 220.551 36.6232C221.575 37.646 222.796 38.4494 224.141 38.9842C226.196 39.7026 228.205 40.5427 230.16 41.5C231.326 42.2073 232.336 43.144 233.13 44.2534C233.923 45.3629 234.483 46.6219 234.775 47.9541C235.119 49.277 235.179 50.6577 234.95 52.0053C234.722 53.353 234.21 54.6369 233.45 55.7725C232.102 57.5319 230.308 58.8984 228.254 59.7301C226.897 60.3227 225.452 60.6888 223.977 60.8139C223.577 60.8426 223.176 60.8426 222.777 60.8139C222.628 60.8174 222.48 60.7911 222.341 60.7364Z" fill="#263238"/>
<path d="M149.914 56.8855C149.914 56.8855 149.827 56.8855 149.692 56.721C149.497 56.5443 149.319 56.35 149.16 56.1404C148.586 55.3544 148.211 54.4415 148.066 53.4794C147.83 52.0302 148.1 50.544 148.831 49.2702C149.317 48.5164 149.958 47.8746 150.711 47.3877C151.464 46.9007 152.313 46.5798 153.2 46.4461C154.087 46.3125 154.992 46.3692 155.855 46.6126C156.719 46.8559 157.52 47.2803 158.207 47.8575C159.282 48.854 159.983 50.1897 160.191 51.6409C160.338 52.6155 160.248 53.6111 159.929 54.5438C159.844 54.7913 159.73 55.0283 159.591 55.2502C159.504 55.405 159.446 55.4824 159.436 55.4727C159.426 55.463 159.571 55.1244 159.736 54.5051C159.968 53.604 160.004 52.6637 159.842 51.7474C159.603 50.4005 158.922 49.1716 157.907 48.2542C157.265 47.7303 156.52 47.3465 155.72 47.1273C154.92 46.9081 154.084 46.8583 153.264 46.9813C152.444 47.1043 151.659 47.3973 150.959 47.8414C150.259 48.2856 149.659 48.8711 149.198 49.5605C148.514 50.728 148.228 52.0868 148.386 53.431C148.5 54.3504 148.81 55.2347 149.295 56.0243C149.682 56.5855 149.944 56.8468 149.914 56.8855Z" fill="#263238"/>
<path d="M180.027 90.3073C179.9 90.3775 179.763 90.4266 179.621 90.4524C179.35 90.5395 178.953 90.6363 178.43 90.7621C176.956 91.1123 175.454 91.3357 173.941 91.4297C171.675 91.607 169.4 91.2558 167.293 90.404C164.736 89.2329 162.635 87.2542 161.313 84.7724C159.986 82.3209 159.291 79.5772 159.291 76.7895C159.293 74.5324 159.619 72.2872 160.258 70.1226C160.684 68.6733 161.214 67.2568 161.845 65.8844C162.068 65.4006 162.252 65.0232 162.387 64.7813C162.445 64.6496 162.52 64.5261 162.61 64.4136C162.448 64.9411 162.254 65.4582 162.029 65.9618C161.471 67.3514 160.996 68.7731 160.607 70.2193C160.013 72.3552 159.716 74.5629 159.726 76.7798C159.747 79.4857 160.435 82.1445 161.729 84.5209C162.993 86.91 165 88.8225 167.448 89.9686C169.507 90.8256 171.733 91.206 173.96 91.0814C175.457 91.0201 176.948 90.8519 178.421 90.5782C178.95 90.4531 179.486 90.3626 180.027 90.3073Z" fill="#263238"/>
<path d="M159.378 66.4165C159.366 66.5737 159.326 66.7275 159.262 66.8713C159.109 67.306 158.901 67.719 158.642 68.1002C157.675 69.5145 156.239 70.5424 154.588 71.0031C153.457 71.3394 152.261 71.3925 151.105 71.1579C149.775 70.8846 148.528 70.3011 147.466 69.4549C146.293 68.5292 145.346 67.3477 144.699 66.0004C144.023 64.5454 143.673 62.9602 143.673 61.3558C143.66 58.2559 144.728 55.2484 146.692 52.8504C147.461 51.8449 148.447 51.0253 149.576 50.4524C150.705 49.8796 151.948 49.5681 153.214 49.5411C154.929 49.5322 156.582 50.1835 157.83 51.3602C158.293 51.7713 158.648 52.2896 158.865 52.8697C158.525 52.3773 158.136 51.9202 157.704 51.5054C156.456 50.4356 154.857 49.8636 153.214 49.8991C152.011 49.9483 150.833 50.2647 149.767 50.8254C148.701 51.3861 147.773 52.1769 147.05 53.1407C145.169 55.465 144.144 58.3655 144.147 61.3558C144.148 62.8854 144.478 64.397 145.115 65.7876C145.729 67.0715 146.621 68.2022 147.728 69.0968C148.729 69.9017 149.9 70.4676 151.153 70.7515C152.251 70.9838 153.389 70.9506 154.472 70.6547C156.06 70.2418 157.464 69.3082 158.459 68.0034C158.807 67.5001 159.115 66.9694 159.378 66.4165Z" fill="#263238"/>
<path d="M435.955 170.998H121.041C113.254 170.998 106.942 177.31 106.942 185.096V383.798C106.942 391.584 113.254 397.896 121.041 397.896H435.955C443.741 397.896 450.053 391.584 450.053 383.798V185.096C450.053 177.31 443.741 170.998 435.955 170.998Z" fill="#455A64"/>
<path d="M93.5309 383.247H465.264V385.879C465.264 390.447 463.449 394.827 460.219 398.058C456.989 401.288 452.608 403.102 448.04 403.102H110.755C106.187 403.102 101.806 401.288 98.5756 398.058C95.3455 394.827 93.5309 390.447 93.5309 385.879V383.247Z" fill="#455A64"/>
<path d="M439.883 180.016H116.154V371.625H439.883V180.016Z" fill="#263238"/>
<path d="M244.674 381.118L249.29 388.453H314.198L318.485 381.118H244.674Z" fill="#263238"/>
<path d="M430.72 186.499H125.985C124.238 186.499 122.821 187.916 122.821 189.663V367.842C122.821 369.589 124.238 371.006 125.985 371.006H430.72C432.467 371.006 433.884 369.589 433.884 367.842V189.663C433.884 187.916 432.467 186.499 430.72 186.499Z" fill="#EBEBEB"/>
<path d="M433.545 371.287H122.492L122.821 200.297H433.545V371.287Z" fill="#FAFAFA"/>
<path d="M148.328 193.65C148.328 194.142 148.182 194.623 147.908 195.032C147.634 195.442 147.245 195.76 146.79 195.948C146.335 196.136 145.835 196.185 145.352 196.088C144.869 195.991 144.426 195.754 144.079 195.405C143.732 195.056 143.495 194.612 143.401 194.129C143.306 193.646 143.356 193.146 143.546 192.691C143.736 192.237 144.056 191.849 144.466 191.577C144.876 191.305 145.358 191.161 145.85 191.163C146.177 191.163 146.5 191.227 146.801 191.352C147.102 191.478 147.375 191.661 147.606 191.892C147.836 192.123 148.018 192.397 148.142 192.699C148.266 193.001 148.329 193.324 148.328 193.65Z" fill="#263238"/>
<path d="M133.32 193.65C133.32 194.142 133.174 194.623 132.9 195.032C132.626 195.442 132.237 195.76 131.782 195.948C131.327 196.136 130.827 196.185 130.344 196.088C129.861 195.991 129.418 195.754 129.071 195.405C128.724 195.056 128.488 194.612 128.393 194.129C128.298 193.646 128.348 193.146 128.538 192.691C128.728 192.237 129.048 191.849 129.458 191.577C129.869 191.305 130.35 191.161 130.843 191.163C131.169 191.163 131.492 191.227 131.793 191.352C132.094 191.478 132.367 191.661 132.598 191.892C132.828 192.123 133.01 192.397 133.134 192.699C133.258 193.001 133.321 193.324 133.32 193.65Z" fill="#263238"/>
<path d="M140.499 193.65C140.499 194.142 140.353 194.623 140.08 195.032C139.806 195.442 139.417 195.76 138.962 195.948C138.507 196.136 138.007 196.185 137.524 196.088C137.041 195.991 136.598 195.754 136.251 195.405C135.903 195.056 135.667 194.612 135.572 194.129C135.478 193.646 135.528 193.146 135.718 192.691C135.908 192.237 136.228 191.849 136.638 191.577C137.048 191.305 137.53 191.161 138.022 191.163C138.68 191.166 139.31 191.429 139.775 191.895C140.239 192.361 140.499 192.992 140.499 193.65Z" fill="#263238"/>
<path d="M447.102 381.118C447.102 381.244 370.95 381.34 277.032 381.34C183.114 381.34 106.942 381.244 106.942 381.118C106.942 380.992 183.085 380.895 277.032 380.895C370.979 380.895 447.102 380.992 447.102 381.118Z" fill="#263238"/>
<path d="M318.059 337.913C318.059 338.049 299.403 338.165 276.393 338.165C253.383 338.165 234.727 338.049 234.727 337.913C234.727 337.778 253.383 337.661 276.393 337.661C299.403 337.661 318.059 337.826 318.059 337.913Z" fill="#E0E0E0"/>
<path d="M222.835 294.089H130.01V363.855H222.835V294.089Z" fill="#F5F5F5"/>
<path d="M130.049 363.904L162.426 320.506L182.533 347.619L196.148 333.104L222.874 363.817L130.049 363.904Z" fill="#E0E0E0"/>
<path d="M191.029 315.164C191.031 316.609 190.604 318.022 189.803 319.225C189.002 320.427 187.862 321.365 186.528 321.92C185.194 322.474 183.725 322.621 182.308 322.341C180.89 322.061 179.587 321.367 178.564 320.347C177.541 319.326 176.844 318.026 176.56 316.609C176.276 315.192 176.419 313.723 176.97 312.387C177.521 311.052 178.456 309.909 179.657 309.105C180.857 308.301 182.269 307.87 183.714 307.868C184.673 307.866 185.624 308.053 186.512 308.418C187.399 308.784 188.206 309.321 188.885 309.998C189.565 310.676 190.104 311.481 190.472 312.368C190.84 313.254 191.029 314.205 191.029 315.164Z" fill="#E0E0E0"/>
<path d="M423.124 294.196H330.299V363.962H423.124V294.196Z" fill="#F5F5F5"/>
<path d="M330.329 364.01L362.715 320.612L382.822 347.725L396.427 333.21L423.153 363.923L330.329 364.01Z" fill="#E0E0E0"/>
<path d="M391.318 315.271C391.32 316.718 390.893 318.133 390.09 319.338C389.287 320.542 388.145 321.481 386.809 322.036C385.472 322.591 384.001 322.738 382.582 322.456C381.162 322.175 379.858 321.479 378.834 320.457C377.809 319.434 377.112 318.131 376.829 316.711C376.546 315.292 376.69 313.821 377.243 312.483C377.797 311.146 378.734 310.003 379.938 309.199C381.141 308.395 382.556 307.965 384.003 307.965C385.941 307.965 387.8 308.735 389.172 310.104C390.544 311.474 391.315 313.332 391.318 315.271Z" fill="#E0E0E0"/>
<path d="M408.435 280.33C409.295 280.186 410.167 280.127 411.038 280.156C412.645 280.156 414.909 280.078 417.318 280.078H420.047L419.805 280.32C419.805 278.53 419.853 276.991 419.902 275.898C419.88 275.317 419.929 274.735 420.047 274.166C420.166 274.735 420.218 275.317 420.202 275.898C420.202 276.991 420.27 278.53 420.289 280.32V280.562H417.318C414.87 280.562 412.645 280.562 411.038 280.485C410.168 280.519 409.296 280.467 408.435 280.33Z" fill="#E0E0E0"/>
<path d="M385.212 280.33C389.076 279.995 392.961 279.995 396.824 280.33C392.961 280.665 389.076 280.665 385.212 280.33Z" fill="#E0E0E0"/>
<path d="M361.989 280.33C365.853 279.995 369.738 279.995 373.601 280.33C369.738 280.665 365.853 280.665 361.989 280.33Z" fill="#E0E0E0"/>
<path d="M338.766 280.33C342.63 279.995 346.515 279.995 350.378 280.33C346.515 280.665 342.63 280.665 338.766 280.33Z" fill="#E0E0E0"/>
<path d="M315.543 280.33C319.406 279.995 323.291 279.995 327.155 280.33C323.291 280.665 319.406 280.665 315.543 280.33Z" fill="#E0E0E0"/>
<path d="M292.32 280.33C296.183 279.995 300.068 279.995 303.932 280.33C300.068 280.665 296.183 280.665 292.32 280.33Z" fill="#E0E0E0"/>
<path d="M269.097 280.33C272.96 279.995 276.845 279.995 280.709 280.33C276.845 280.665 272.96 280.665 269.097 280.33Z" fill="#E0E0E0"/>
<path d="M245.874 280.33C249.737 279.995 253.622 279.995 257.486 280.33C253.622 280.665 249.737 280.665 245.874 280.33Z" fill="#E0E0E0"/>
<path d="M222.651 280.33C224.576 280.081 226.518 279.997 228.457 280.078C230.396 279.997 232.338 280.081 234.263 280.33C232.338 280.579 230.396 280.663 228.457 280.581C226.518 280.663 224.576 280.578 222.651 280.33Z" fill="#E0E0E0"/>
<path d="M199.428 280.33C201.353 280.081 203.295 279.997 205.234 280.078C207.173 279.997 209.115 280.081 211.04 280.33C209.115 280.579 207.173 280.663 205.234 280.581C203.295 280.663 201.353 280.578 199.428 280.33Z" fill="#E0E0E0"/>
<path d="M176.205 280.33C178.13 280.081 180.072 279.997 182.011 280.078C183.95 279.997 185.892 280.081 187.816 280.33C185.892 280.579 183.95 280.663 182.011 280.581C180.072 280.663 178.13 280.578 176.205 280.33Z" fill="#E0E0E0"/>
<path d="M152.982 280.33C154.907 280.081 156.849 279.997 158.788 280.078C160.727 279.997 162.669 280.081 164.593 280.33C162.669 280.579 160.727 280.663 158.788 280.581C156.849 280.663 154.907 280.578 152.982 280.33Z" fill="#E0E0E0"/>
<path d="M129.778 280.32C131.704 280.081 133.645 280 135.584 280.078C137.523 279.997 139.465 280.081 141.39 280.33C139.465 280.579 137.523 280.663 135.584 280.581C133.645 280.659 131.704 280.578 129.778 280.339V280.32Z" fill="#E0E0E0"/>
<path d="M129.778 257.097C130.114 260.96 130.114 264.845 129.778 268.709C129.443 264.845 129.443 260.96 129.778 257.097Z" fill="#E0E0E0"/>
<path d="M129.778 233.874C130.027 235.799 130.111 237.741 130.03 239.68C130.111 241.619 130.027 243.561 129.778 245.486C129.524 243.561 129.44 241.619 129.527 239.68C129.439 237.741 129.523 235.798 129.778 233.874Z" fill="#E0E0E0"/>
<path d="M129.778 210.651C130.027 212.576 130.111 214.518 130.03 216.457C130.111 218.396 130.027 220.338 129.778 222.263C129.524 220.339 129.44 218.396 129.527 216.457C129.439 214.518 129.523 212.575 129.778 210.651Z" fill="#E0E0E0"/>
<path d="M149.924 207.574C148 207.822 146.057 207.907 144.118 207.825C142.18 207.907 140.237 207.823 138.313 207.574C140.237 207.319 142.18 207.235 144.118 207.322C146.057 207.235 148 207.32 149.924 207.574Z" fill="#E0E0E0"/>
<path d="M173.147 207.574C171.223 207.822 169.28 207.907 167.341 207.825C165.403 207.907 163.46 207.823 161.536 207.574C163.46 207.319 165.403 207.235 167.341 207.322C169.28 207.235 171.223 207.32 173.147 207.574Z" fill="#E0E0E0"/>
<path d="M196.37 207.574C194.446 207.822 192.503 207.907 190.565 207.825C188.626 207.907 186.683 207.823 184.759 207.574C186.683 207.319 188.626 207.235 190.565 207.322C192.503 207.235 194.446 207.32 196.37 207.574Z" fill="#E0E0E0"/>
<path d="M219.593 207.574C217.669 207.822 215.726 207.907 213.788 207.825C211.849 207.907 209.906 207.823 207.982 207.574C209.906 207.319 211.849 207.235 213.788 207.322C215.726 207.235 217.669 207.32 219.593 207.574Z" fill="#E0E0E0"/>
<path d="M242.816 207.574C238.953 207.909 235.068 207.909 231.205 207.574C233.129 207.319 235.072 207.235 237.011 207.322C238.949 207.235 240.892 207.32 242.816 207.574Z" fill="#E0E0E0"/>
<path d="M266.039 207.574C262.176 207.909 258.291 207.909 254.428 207.574C258.291 207.239 262.176 207.239 266.039 207.574Z" fill="#E0E0E0"/>
<path d="M289.262 207.574C285.399 207.909 281.514 207.909 277.651 207.574C281.514 207.239 285.399 207.239 289.262 207.574Z" fill="#E0E0E0"/>
<path d="M312.486 207.574C308.622 207.909 304.737 207.909 300.874 207.574C304.737 207.239 308.622 207.239 312.486 207.574Z" fill="#E0E0E0"/>
<path d="M335.709 207.574C331.845 207.909 327.96 207.909 324.097 207.574C327.96 207.239 331.845 207.239 335.709 207.574Z" fill="#E0E0E0"/>
<path d="M358.932 207.574C355.068 207.909 351.183 207.909 347.32 207.574C351.183 207.239 355.068 207.239 358.932 207.574Z" fill="#E0E0E0"/>
<path d="M382.155 207.574C378.291 207.909 374.406 207.909 370.543 207.574C374.406 207.239 378.291 207.239 382.155 207.574Z" fill="#E0E0E0"/>
<path d="M405.378 207.574C401.514 207.909 397.629 207.909 393.766 207.574C397.629 207.239 401.514 207.239 405.378 207.574Z" fill="#E0E0E0"/>
<path d="M420.047 216.118C419.798 214.193 419.714 212.251 419.795 210.312C419.795 209.345 419.795 208.435 419.795 207.574L420.018 207.796C418.994 207.835 417.968 207.76 416.96 207.574C417.967 207.381 418.993 207.307 420.018 207.351H420.24V207.584C420.24 208.445 420.24 209.354 420.24 210.322C420.346 212.256 420.281 214.195 420.047 216.118Z" fill="#E0E0E0"/>
<path d="M420.047 239.341C419.798 237.416 419.714 235.474 419.795 233.535C419.714 231.596 419.798 229.654 420.047 227.729C420.301 229.654 420.385 231.596 420.299 233.535C420.385 235.474 420.301 237.417 420.047 239.341Z" fill="#E0E0E0"/>
<path d="M420.047 262.564C419.711 258.701 419.711 254.816 420.047 250.953C420.382 254.816 420.382 258.701 420.047 262.564Z" fill="#E0E0E0"/>
<path d="M318.059 361.436C318.059 361.581 299.403 361.688 276.393 361.688C253.383 361.688 234.727 361.581 234.727 361.436C234.727 361.291 253.383 361.185 276.393 361.185C299.403 361.185 318.059 361.301 318.059 361.436Z" fill="#E0E0E0"/>
<path d="M318.059 350.676C318.059 350.812 299.403 350.928 276.393 350.928C253.383 350.928 234.727 350.812 234.727 350.676C234.727 350.541 253.383 350.425 276.393 350.425C299.403 350.425 318.059 350.541 318.059 350.676Z" fill="#E0E0E0"/>
<path d="M62.8377 267.702H57.8254V402.909H62.8377V267.702Z" fill="#263238"/>
<path d="M60.3316 272.521C76.4278 272.521 89.4765 259.472 89.4765 243.376C89.4765 227.28 76.4278 214.231 60.3316 214.231C44.2353 214.231 31.1866 227.28 31.1866 243.376C31.1866 259.472 44.2353 272.521 60.3316 272.521Z" fill="#0B9160"/>
<path d="M86.5736 242.999C86.5431 242.859 86.5269 242.716 86.5252 242.573C86.5252 242.273 86.5252 241.857 86.4381 241.334C86.4381 241.054 86.4381 240.754 86.3801 240.415C86.322 240.076 86.2639 239.718 86.2059 239.322C86.0909 238.409 85.9065 237.507 85.6543 236.622C85.0437 234.173 84.0649 231.83 82.7515 229.674C81.029 226.813 78.776 224.307 76.1135 222.291C72.6495 219.657 68.5786 217.936 64.2753 217.287C59.972 216.637 55.5745 217.081 51.4874 218.576C50.3256 218.994 49.1941 219.492 48.1007 220.066C47.5492 220.366 47.017 220.714 46.4751 221.033C45.9288 221.359 45.4051 221.721 44.9076 222.117C43.8872 222.89 42.9176 223.727 42.0047 224.623C41.0841 225.569 40.2306 226.578 39.4501 227.642C37.8379 229.814 36.5865 232.232 35.7441 234.803C34.8684 237.449 34.3986 240.212 34.3508 242.999C34.3852 245.782 34.8353 248.544 35.6861 251.194C36.5317 253.768 37.7863 256.189 39.4018 258.365C40.184 259.425 41.034 260.433 41.9466 261.384C42.8754 262.282 43.8612 263.119 44.8979 263.89C45.3955 264.286 45.9192 264.648 46.4654 264.973C47.0073 265.293 47.5395 265.641 48.0911 265.941C49.1824 266.519 50.3143 267.017 51.4778 267.431C57.167 269.499 63.3986 269.522 69.1032 267.497C74.8078 265.472 79.6298 261.525 82.7418 256.333C84.0565 254.181 85.0353 251.841 85.6447 249.395C85.8969 248.507 86.0813 247.601 86.1962 246.685C86.2639 246.298 86.3317 245.931 86.3704 245.592C86.4091 245.253 86.3704 244.953 86.4284 244.682C86.4671 244.147 86.4962 243.731 86.5155 243.434C86.5172 243.291 86.5334 243.148 86.5639 243.008C86.5767 243.15 86.5767 243.292 86.5639 243.434C86.5639 243.744 86.5639 244.16 86.5639 244.682C86.5639 244.966 86.5639 245.289 86.5639 245.65C86.5639 245.989 86.4671 246.347 86.4188 246.753C86.3131 247.674 86.1417 248.586 85.9059 249.482C85.3026 251.961 84.3237 254.333 83.003 256.516C81.0988 259.743 78.5298 262.527 75.4668 264.684C72.4037 266.841 68.9167 268.322 65.2374 269.028C60.5886 269.902 55.7904 269.515 51.3423 267.905C50.154 267.483 48.9965 266.979 47.8782 266.396C47.3266 266.096 46.7848 265.748 46.2332 265.428C45.6679 265.087 45.1279 264.705 44.6173 264.286C43.557 263.508 42.5515 262.658 41.608 261.742C40.6737 260.778 39.8041 259.753 39.005 258.674C37.3603 256.46 36.0798 253.997 35.2119 251.378C33.3931 245.953 33.3931 240.083 35.2119 234.658C36.0798 232.039 37.3603 229.576 39.005 227.362C39.8046 226.287 40.6742 225.265 41.608 224.304C42.5502 223.371 43.5557 222.505 44.6173 221.711C45.1206 221.306 45.6544 220.94 46.2139 220.617C46.7654 220.288 47.3073 219.93 47.8588 219.65C48.9791 219.071 50.1363 218.567 51.3229 218.14C55.7718 216.533 60.5702 216.149 65.2181 217.028C68.9027 217.729 72.3953 219.209 75.4623 221.368C78.5293 223.527 81.1002 226.316 83.003 229.549C84.3255 231.734 85.3046 234.11 85.9059 236.593C86.1426 237.489 86.314 238.401 86.4188 239.322C86.4671 239.718 86.5349 240.086 86.5639 240.425C86.5929 240.763 86.5639 241.063 86.5639 241.392C86.5639 241.925 86.5639 242.36 86.5639 242.641C86.5762 242.76 86.5794 242.879 86.5736 242.999Z" fill="white"/>
<path d="M75.5137 239.738H45.1592V246.066H75.5137V239.738Z" fill="#FAFAFA"/>
<path d="M451.09 206.008L167.192 228.8L173.809 311.219L457.707 288.427L451.09 206.008Z" fill="white"/>
<path d="M457.726 288.39C457.63 287.2 455.22 257.92 450.953 205.987L451.117 206.132L167.245 229.036L167.467 228.765C169.751 257.213 171.976 284.887 174.086 311.178L173.825 310.955L376.736 294.767L457.726 288.39L456.343 288.516L452.24 288.864L436.322 290.171L376.92 295.009L173.854 311.458H173.612V311.207C171.493 284.936 169.267 257.242 166.983 228.794V228.542H167.235L451.088 205.813H451.253V205.968C455.336 257.91 457.639 287.2 457.726 288.39Z" fill="#263238"/>
<path d="M264.633 230.911L174.983 237.186L179.7 304.572L269.35 298.296L264.633 230.911Z" fill="#0B9160"/>
<path d="M376.02 288.361C374.109 288.771 372.167 289.017 370.214 289.096L369.943 288.864V288.584V288.293C369.943 288.09 369.943 287.906 369.943 287.713C369.943 287.345 369.885 286.987 369.866 286.629C369.866 285.99 369.798 285.381 369.759 284.781C369.677 284.216 369.677 283.642 369.759 283.078C369.948 283.617 370.055 284.181 370.079 284.752C370.146 285.342 370.214 285.952 370.291 286.59C370.291 286.939 370.359 287.306 370.388 287.674L370.446 288.245V288.545V288.816L370.175 288.584C372.114 288.345 374.069 288.271 376.02 288.361Z" fill="#E0E0E0"/>
<path d="M402.32 286.145C400.162 286.574 397.976 286.842 395.779 286.948C393.594 287.223 391.39 287.323 389.189 287.248C391.347 286.82 393.533 286.551 395.73 286.445C397.916 286.171 400.119 286.071 402.32 286.145Z" fill="#E0E0E0"/>
<path d="M428.543 283.929C426.385 284.357 424.199 284.626 422.002 284.732C419.816 285.001 417.613 285.101 415.412 285.032C417.57 284.604 419.756 284.335 421.953 284.229C424.138 283.955 426.342 283.855 428.543 283.929Z" fill="#E0E0E0"/>
<path d="M446.966 276.546C447.386 278.439 447.635 280.366 447.711 282.304C447.247 282.855 447.576 282.459 447.479 282.584H447.179H446.889H446.308L445.225 282.662L443.386 282.768C442.818 282.85 442.241 282.85 441.673 282.768C442.216 282.582 442.783 282.474 443.357 282.449L445.186 282.236L446.27 282.13L446.85 282.081H447.141H447.431C447.334 282.197 447.663 281.81 447.208 282.352C446.963 280.427 446.882 278.485 446.966 276.546Z" fill="#E0E0E0"/>
<path d="M445.137 254.881C445.801 258.452 446.125 262.077 446.105 265.709C445.705 263.938 445.469 262.134 445.399 260.319C445.149 258.518 445.062 256.698 445.137 254.881Z" fill="#E0E0E0"/>
<path d="M443.309 233.226C443.715 234.996 443.955 236.8 444.025 238.615C444.258 240.418 444.326 242.238 444.228 244.053C443.823 242.28 443.586 240.472 443.522 238.654C443.288 236.855 443.217 235.038 443.309 233.226Z" fill="#E0E0E0"/>
<path d="M436.119 217.095C438.03 216.687 439.972 216.441 441.925 216.36L442.196 216.592V216.873V217.163C442.196 217.366 442.196 217.55 442.196 217.744C442.196 218.111 442.244 218.469 442.273 218.827C442.273 219.466 442.341 220.076 442.37 220.675C442.455 221.24 442.455 221.814 442.37 222.379C442.182 221.839 442.074 221.275 442.051 220.704C441.983 220.114 441.915 219.505 441.838 218.866C441.838 218.518 441.77 218.15 441.731 217.782L441.683 217.211V216.911V216.64L441.964 216.873C440.025 217.111 438.07 217.185 436.119 217.095Z" fill="#E0E0E0"/>
<path d="M409.867 219.311C412.025 218.881 414.211 218.613 416.409 218.508C418.59 218.234 420.791 218.134 422.988 218.208C420.831 218.638 418.645 218.907 416.447 219.011C414.265 219.286 412.065 219.386 409.867 219.311Z" fill="#E0E0E0"/>
<path d="M383.606 221.527C385.763 221.097 387.95 220.829 390.147 220.724C392.333 220.456 394.536 220.355 396.737 220.424C394.576 220.853 392.386 221.121 390.186 221.227C388.004 221.502 385.804 221.602 383.606 221.527Z" fill="#E0E0E0"/>
<path d="M365.173 228.91C364.765 227.015 364.519 225.089 364.437 223.153C364.892 222.601 364.563 222.998 364.67 222.882H364.96H365.26L365.831 222.834L366.914 222.756L368.763 222.65C369.331 222.568 369.907 222.568 370.475 222.65C369.932 222.835 369.365 222.942 368.792 222.969L366.953 223.182L365.869 223.288L365.298 223.337H365.008H364.708L364.94 223.066C365.194 225.003 365.271 226.959 365.173 228.91Z" fill="#E0E0E0"/>
<path d="M367.002 250.575C366.603 248.8 366.366 246.993 366.295 245.176C366.056 243.377 365.988 241.559 366.092 239.747C366.492 241.518 366.728 243.323 366.798 245.137C367.038 246.939 367.106 248.76 367.002 250.575Z" fill="#E0E0E0"/>
<path d="M368.83 272.231C368.431 270.46 368.194 268.655 368.124 266.841C367.885 265.039 367.817 263.218 367.921 261.403C368.32 263.177 368.557 264.985 368.627 266.802C368.866 268.601 368.935 270.419 368.83 272.231Z" fill="#E0E0E0"/>
<path d="M179.456 303.485L207.72 259.487L228.931 284.249L241.055 269.337L268.884 297.128L179.456 303.485Z" fill="#0B9160"/>
<path d="M234.921 252.404C235.02 253.798 234.705 255.19 234.013 256.404C233.322 257.618 232.286 258.6 231.037 259.225C229.787 259.851 228.381 260.091 226.994 259.917C225.608 259.743 224.305 259.162 223.249 258.247C222.193 257.332 221.432 256.124 221.063 254.777C220.693 253.429 220.732 252.002 221.173 250.677C221.615 249.351 222.439 248.186 223.543 247.329C224.646 246.473 225.979 245.962 227.373 245.863C229.241 245.732 231.084 246.348 232.498 247.574C233.913 248.8 234.784 250.537 234.921 252.404Z" fill="#0B9160"/>
<g opacity="0.2">
<path d="M179.456 303.485L207.72 259.487L228.931 284.249L241.055 269.337L268.884 297.128L179.456 303.485Z" fill="black"/>
</g>
<g opacity="0.2">
<path d="M234.921 252.404C235.02 253.798 234.705 255.19 234.013 256.404C233.322 257.618 232.286 258.6 231.037 259.225C229.787 259.851 228.381 260.091 226.994 259.917C225.608 259.743 224.305 259.162 223.249 258.247C222.193 257.332 221.432 256.124 221.063 254.777C220.693 253.429 220.732 252.002 221.173 250.677C221.615 249.351 222.439 248.186 223.543 247.329C224.646 246.473 225.979 245.962 227.373 245.863C229.241 245.732 231.084 246.348 232.498 247.574C233.913 248.8 234.784 250.537 234.921 252.404Z" fill="black"/>
</g>
<path d="M357.335 241.489C357.335 241.634 339.966 243.347 318.514 245.36C297.062 247.372 279.654 248.834 279.635 248.688C279.615 248.543 297.052 246.84 318.465 244.818C339.879 242.796 357.325 241.354 357.335 241.489Z" fill="#263238"/>
<path d="M359.59 254.417C359.59 254.562 342.017 256.294 320.333 258.287C298.648 260.28 281.038 261.8 281.018 261.664C280.999 261.529 298.581 259.787 320.284 257.794C341.988 255.8 359.57 254.281 359.59 254.417Z" fill="#263238"/>
<path d="M361.834 267.354C361.834 267.489 344.079 269.241 322.162 271.224C300.245 273.208 282.489 274.776 282.489 274.64C282.489 274.505 300.235 272.753 322.162 270.721C344.088 268.689 361.825 267.189 361.834 267.354Z" fill="#263238"/>
<path d="M362.299 280.165C362.299 280.31 344.524 282.1 322.578 284.094C300.632 286.087 282.808 287.645 282.799 287.51C282.789 287.374 300.574 285.574 322.529 283.591C344.485 281.607 362.289 280.03 362.299 280.165Z" fill="#263238"/>
<path d="M318.79 232.956L277.885 236.24L278.145 239.48L319.05 236.196L318.79 232.956Z" fill="#0B9160"/>
<path d="M406.984 262.845C406.848 262.845 406.316 258.084 405.803 252.201C405.291 246.318 404.991 241.509 405.136 241.499C405.281 241.489 405.794 246.26 406.307 252.143C406.819 258.026 407.158 262.835 406.984 262.845Z" fill="#E0E0E0"/>
<path d="M415.925 251.649C415.925 251.785 411.338 252.191 405.668 252.549C399.998 252.907 395.382 253.091 395.382 252.956C398.783 252.478 402.207 252.174 405.639 252.046C411.309 251.707 415.915 251.514 415.925 251.649Z" fill="#E0E0E0"/>
<path d="M451.108 205.968C451.108 205.968 450.876 205.9 450.421 205.726L448.485 204.971L440.861 202.01L412.674 190.969L318.543 153.871H318.746L306.835 159.783L208.137 208.677L178.218 223.433L170.089 227.42L167.961 228.446C167.487 228.678 167.235 228.784 167.235 228.784L167.941 228.397L170.041 227.333L178.15 223.259L208.011 208.348L306.631 159.318L318.543 153.406H318.64H318.746L412.819 190.65L440.88 201.836L448.466 204.884L450.401 205.687L451.108 205.968Z" fill="#263238"/>
<path d="M393.302 70.761C392.791 69.6344 391.968 68.6776 390.931 68.004C389.894 67.3303 388.685 66.968 387.448 66.9599C386.211 66.9517 384.998 67.2981 383.952 67.958C382.906 68.618 382.07 69.5638 381.545 70.6836L371.433 71.5158L381.651 91.6714L388.057 79.8857C388.761 79.8196 389.448 79.633 390.089 79.3342C390.863 78.9822 391.56 78.4813 392.14 77.86C392.721 77.2386 393.173 76.5091 393.471 75.713C393.769 74.9169 393.908 74.0698 393.879 73.2201C393.85 72.3705 393.654 71.5349 393.302 70.761Z" fill="#263238"/>
<path d="M334.934 41.5776L341.534 38.7618L325.616 34.7558C324.913 33.6578 323.894 32.798 322.693 32.289C321.492 31.78 320.166 31.6455 318.887 31.9031C317.609 32.1607 316.438 32.7985 315.528 33.7329C314.618 34.6673 314.012 35.8546 313.789 37.1395C313.565 38.4243 313.735 39.7467 314.276 40.9334C314.816 42.1201 315.703 43.1158 316.819 43.7901C317.936 44.4643 319.23 44.7857 320.532 44.712C321.834 44.6384 323.083 44.1732 324.116 43.3774L339.231 52.6279L334.934 41.5776Z" fill="#263238"/>
<path d="M462.313 239.419V239.283L353.077 35.6558L352.458 34.5043L335.254 42.3517L417.628 259.449L417.676 259.584L466.735 337.565L467.702 337.42L468.835 337.255L469.725 337.12L459.574 320.99L465.506 305.711L481.211 311.517L488.129 334.401L488.952 334.285L489.997 334.13L490.964 333.995L462.313 239.419ZM469.376 272.405L449.772 267.373L461.142 245.166L469.376 272.405ZM448.04 266.928L423.927 260.735L459.516 244.518L448.04 266.928ZM457.146 235.616L432.094 228.688L442.37 208.068L457.146 235.616ZM430.381 228.223L408.329 222.127L440.793 207.332L430.381 228.223ZM439.312 202.359L416.225 194.308L424.459 174.665L439.312 202.359ZM414.58 193.737L394.26 186.664L422.988 173.581L414.58 193.737ZM421.189 168.579L400.181 159.502L406.403 141.001L421.189 168.579ZM398.575 158.815L380.577 151.074L404.913 139.985L398.575 158.815ZM403.413 135.389L403.297 135.447L384.399 125.229L388.599 107.763L403.413 135.389ZM384.777 100.661L368.327 89.5913L370.504 73.9931L384.777 100.661ZM366.682 88.5075L353.435 79.6054L368.917 72.5514L366.682 88.5075ZM352.642 40.7648L366.634 66.8907L352.245 54.7664L352.642 40.7648ZM349.971 73.3061L339.811 46.5706L350.455 55.5502L349.971 73.3061ZM350.542 53.2956L339.114 43.6677L350.968 38.2683L350.542 53.2956ZM352.177 56.9629L366.024 68.5744L351.655 75.1253L352.177 56.9629ZM353.077 81.4826L366.421 90.4428L363.731 109.592L353.077 81.4826ZM368.027 91.5265L384.061 102.296L365.318 110.831L368.027 91.5265ZM387.157 106.147L382.783 124.348L366.518 115.533L387.157 106.147ZM366.837 117.701L382.377 126.1L377.587 146.033L366.837 117.701ZM383.964 126.961L401.294 136.328L379.281 146.333L383.964 126.961ZM380.093 152.719L398.004 160.46L390.97 181.39L380.093 152.719ZM399.611 161.147L419.689 169.856L392.528 182.222L399.611 161.147ZM393.573 188.241L413.893 195.324L404.642 217.415L393.573 188.241ZM415.547 195.904L437.532 203.568L406.394 217.744L415.547 195.904ZM406.974 223.569L429.597 229.82L418.102 252.888L406.974 223.569ZM431.349 230.284L455.936 237.058L419.747 253.507L431.349 230.284ZM422.64 262.216L447.295 268.544L438.016 286.658L422.64 262.216ZM449.027 268.989L469.086 274.137L439.361 287.684L449.027 268.989ZM458.491 319.209L445.321 298.27L463.938 305.169L458.491 319.209ZM464.567 303.543L443.802 295.802L443.289 294.999L472.318 281.791L472.618 282.759L464.567 303.543ZM466.203 304.143L473.363 285.574L480.601 309.514L466.203 304.143Z" fill="#263238"/>
<path d="M318.475 132.002C318.475 132.002 318.475 131.421 318.475 130.28C318.475 129.138 318.475 127.454 318.475 125.248C318.475 120.826 318.475 114.324 318.417 105.992C318.417 89.3201 318.369 65.3519 318.33 36.0328V35.849H318.514L349.1 32.6074H349.207L349.284 32.6945L429.065 121.861L545.18 251.833L580.363 291.244L589.904 301.985L592.372 304.782C592.923 305.411 593.204 305.749 593.204 305.749C593.204 305.749 592.904 305.44 592.333 304.782C591.762 304.124 590.92 303.233 589.827 302.014C587.621 299.576 584.389 295.976 580.218 291.37L544.958 252.046L428.698 122.19L348.965 33.0235L349.149 33.1009L318.494 36.2747L318.669 36.0812C318.669 65.381 318.611 89.3684 318.582 106.041C318.582 114.372 318.582 120.874 318.582 125.296C318.582 127.503 318.582 129.167 318.582 130.328C318.582 131.489 318.475 132.002 318.475 132.002Z" fill="#263238"/>
<path d="M320.236 104.667H316.075C315.872 104.667 315.708 104.831 315.708 105.034V114.798C315.708 115.001 315.872 115.166 316.075 115.166H320.236C320.439 115.166 320.604 115.001 320.604 114.798V105.034C320.604 104.831 320.439 104.667 320.236 104.667Z" fill="#263238"/>
<path d="M326.468 116.791H310.395C309.921 116.791 309.465 116.603 309.13 116.267C308.794 115.931 308.605 115.476 308.605 115.001C308.605 114.526 308.794 114.071 309.13 113.735C309.465 113.4 309.921 113.211 310.395 113.211H326.477C326.952 113.211 327.407 113.4 327.743 113.735C328.079 114.071 328.267 114.526 328.267 115.001C328.267 115.237 328.221 115.471 328.13 115.688C328.04 115.906 327.907 116.104 327.74 116.27C327.572 116.437 327.374 116.568 327.156 116.658C326.937 116.747 326.704 116.792 326.468 116.791Z" fill="#263238"/>
<path d="M319.597 145.549L319.539 143.256L317.169 144.301C317.086 145.147 317.086 145.999 317.169 146.846C317.173 146.982 317.202 147.117 317.256 147.242C317.403 147.433 317.606 147.571 317.836 147.639C318.875 148.035 319.737 148.79 320.265 149.768C320.439 150.124 320.535 150.512 320.548 150.907C320.56 151.303 320.489 151.697 320.338 152.063C320.187 152.428 319.96 152.758 319.672 153.03C319.385 153.301 319.042 153.509 318.669 153.638C317.932 153.861 317.137 153.783 316.458 153.42C315.78 153.057 315.273 152.44 315.05 151.703C315.05 151.307 315.05 150.736 314.508 150.736C313.724 150.658 313.385 151.8 313.405 152.4C313.53 155.874 316.801 156.977 318.185 157.025C319.124 157.089 320.063 156.888 320.894 156.445C321.551 156.065 322.118 155.548 322.556 154.928C322.994 154.308 323.292 153.601 323.429 152.855C324.184 148.288 319.356 145.839 319.597 145.549Z" fill="#263238"/>
<path d="M321.62 144.407L331.896 119.684C332.109 119.169 332.192 118.608 332.137 118.053C332.082 117.498 331.891 116.965 331.581 116.501C331.271 116.037 330.852 115.657 330.36 115.393C329.868 115.13 329.319 114.992 328.761 114.991H308.218C307.659 114.99 307.109 115.126 306.616 115.389C306.123 115.651 305.702 116.032 305.392 116.497C305.081 116.961 304.891 117.496 304.837 118.052C304.783 118.608 304.868 119.169 305.083 119.684L315.35 144.407C315.608 145.026 316.043 145.555 316.601 145.927C317.159 146.299 317.814 146.497 318.485 146.497C319.155 146.497 319.811 146.299 320.369 145.927C320.927 145.555 321.362 145.026 321.62 144.407Z" fill="#E0E0E0"/>
<path d="M309.263 116.743L306.602 119.394C306.602 119.491 306.602 119.597 306.651 119.694L307.521 121.784L312.563 116.743H309.263Z" fill="#0B9160"/>
<path d="M319.181 116.743H315.872L308.489 124.126L309.466 126.458L319.181 116.743Z" fill="#0B9160"/>
<path d="M326.245 129.515L328.587 123.865L314.314 138.137L315.282 140.469L326.245 129.515Z" fill="#0B9160"/>
<path d="M323.942 135.176L316.308 142.811L316.559 143.43C316.67 143.706 316.838 143.956 317.054 144.161C317.269 144.367 317.526 144.523 317.808 144.62L321.591 140.827L323.942 135.176Z" fill="#0B9160"/>
<path d="M325.79 116.743H322.491L310.434 128.79L311.402 131.131L325.79 116.743Z" fill="#0B9160"/>
<path d="M330.474 118.668C330.44 118.249 330.276 117.851 330.003 117.532C329.73 117.212 329.363 116.986 328.954 116.888L312.331 133.463L313.298 135.805L330.474 118.668Z" fill="#0B9160"/>
<path d="M583.044 300.418H600.306C600.984 300.418 601.633 300.687 602.113 301.166C602.592 301.645 602.861 302.295 602.861 302.972V310.849H580.489V302.992C580.487 302.655 580.551 302.32 580.678 302.008C580.805 301.696 580.993 301.412 581.231 301.173C581.468 300.934 581.75 300.744 582.062 300.614C582.373 300.484 582.707 300.418 583.044 300.418Z" fill="#263238"/>
<path d="M541.397 308.256H537.73V286.445C537.732 285.48 537.882 284.52 538.175 283.6L540.023 277.891C540.034 277.869 540.052 277.85 540.073 277.837C540.094 277.824 540.119 277.817 540.144 277.817C540.169 277.817 540.194 277.824 540.215 277.837C540.236 277.85 540.254 277.869 540.265 277.891L542.423 281.762L541.852 283.533C541.552 284.471 541.399 285.45 541.397 286.436V308.256Z" fill="#263238"/>
<path d="M631.783 312.223C631.274 310.977 630.457 309.88 629.41 309.034C628.363 308.188 627.119 307.621 625.793 307.385L534.062 307.336V292.096C534.062 291.609 533.966 291.126 533.779 290.676C533.592 290.225 533.319 289.816 532.973 289.472C532.628 289.128 532.219 288.855 531.768 288.669C531.317 288.484 530.834 288.389 530.347 288.39H486.02C485.234 288.39 484.469 288.638 483.834 289.101C483.199 289.564 482.728 290.216 482.488 290.964L481.162 295.164H486.097C486.661 295.163 487.218 295.286 487.729 295.523C488.241 295.76 488.694 296.107 489.058 296.538C489.414 296.961 489.669 297.46 489.803 297.996C489.937 298.533 489.947 299.093 489.832 299.634L485.091 322.131C484.889 322.974 484.411 323.725 483.732 324.264C483.053 324.802 482.213 325.097 481.346 325.102H471.931C471.806 326.535 471.891 327.979 472.183 329.388L472.705 331.643L448.437 336.413C448.244 336.452 448.066 336.545 447.925 336.683C447.785 336.82 447.687 336.996 447.644 337.188L445.36 343.322C445.214 343.601 445.103 343.897 445.031 344.203C444.547 346.225 444.905 349.612 446.124 349.612H472.125L471.021 350.928L469.551 355.495H634.715C634.754 340.729 634.367 318.474 631.783 312.223ZM517.303 298.27L514.865 320.409C514.865 320.69 514.787 320.97 514.739 321.241C514.249 323.429 513.018 325.381 511.255 326.767C509.492 328.153 507.305 328.887 505.063 328.847H494.167C493.666 328.846 493.172 328.734 492.72 328.518C492.269 328.302 491.871 327.987 491.557 327.598C491.242 327.208 491.019 326.753 490.903 326.266C490.787 325.779 490.781 325.272 490.887 324.783L496.015 298.212C496.189 297.371 496.646 296.617 497.31 296.074C497.974 295.531 498.805 295.234 499.663 295.231H514.565C514.958 295.232 515.347 295.315 515.705 295.475C516.064 295.636 516.385 295.871 516.647 296.164C516.909 296.457 517.107 296.802 517.226 297.177C517.346 297.551 517.385 297.947 517.342 298.337L517.303 298.27Z" fill="#0B9160"/>
<path d="M557.924 366.506L487.626 367.474C487.171 367.474 486.358 366.119 486.358 365.665V357.817C486.358 357.596 486.446 357.385 486.602 357.229C486.758 357.073 486.97 356.985 487.191 356.985H557.924C558.033 356.985 558.141 357.007 558.241 357.049C558.342 357.09 558.433 357.152 558.509 357.229C558.586 357.307 558.646 357.399 558.687 357.499C558.728 357.6 558.748 357.708 558.747 357.817V365.665C558.749 365.774 558.73 365.883 558.69 365.985C558.649 366.087 558.589 366.18 558.513 366.259C558.436 366.337 558.344 366.399 558.243 366.442C558.142 366.485 558.034 366.506 557.924 366.506Z" fill="#455A64"/>
<path d="M517.303 298.27L514.865 320.409C514.865 320.69 514.787 320.96 514.739 321.241C514.257 323.433 513.028 325.389 511.263 326.775C509.498 328.16 507.306 328.889 505.063 328.837H494.187C493.685 328.835 493.191 328.722 492.739 328.504C492.288 328.287 491.89 327.972 491.576 327.582C491.262 327.191 491.038 326.736 490.923 326.248C490.807 325.761 490.801 325.253 490.906 324.763L496.035 298.192C496.21 297.353 496.667 296.599 497.331 296.057C497.995 295.514 498.825 295.216 499.683 295.212H514.565C514.958 295.214 515.347 295.298 515.706 295.46C516.065 295.622 516.386 295.857 516.648 296.151C516.91 296.445 517.107 296.79 517.226 297.165C517.346 297.54 517.385 297.936 517.342 298.328L517.303 298.27Z" fill="#0B9160"/>
<mask id="mask0_478_1014" style="mask-type:luminance" x="490" y="295" width="28" height="34">
<path d="M517.303 298.27L514.865 320.409C514.865 320.69 514.787 320.96 514.739 321.241C514.257 323.433 513.028 325.389 511.263 326.775C509.498 328.16 507.306 328.889 505.063 328.837H494.187C493.685 328.835 493.191 328.722 492.739 328.504C492.288 328.287 491.89 327.972 491.576 327.582C491.262 327.191 491.038 326.736 490.923 326.248C490.807 325.761 490.801 325.253 490.906 324.763L496.035 298.192C496.21 297.353 496.667 296.599 497.331 296.057C497.995 295.514 498.825 295.216 499.683 295.212H514.565C514.958 295.214 515.347 295.298 515.706 295.46C516.065 295.622 516.386 295.857 516.648 296.151C516.91 296.445 517.107 296.79 517.226 297.165C517.346 297.54 517.385 297.936 517.342 298.328L517.303 298.27Z" fill="white"/>
</mask>
<g mask="url(#mask0_478_1014)">
<path d="M482.488 290.954L472.57 321.773C471.775 324.234 471.642 326.86 472.183 329.389L476.431 349.089H534.063V292.096C534.063 291.111 533.671 290.166 532.974 289.469C532.277 288.772 531.332 288.38 530.347 288.38H486.02C485.235 288.383 484.471 288.633 483.837 289.095C483.203 289.557 482.731 290.208 482.488 290.954Z" fill="#0B9160"/>
</g>
<path d="M494.186 328.779C493.686 328.779 493.191 328.666 492.74 328.45C492.288 328.234 491.89 327.92 491.576 327.53C491.261 327.141 491.038 326.686 490.922 326.198C490.806 325.711 490.801 325.204 490.906 324.715L496.035 298.144C496.208 297.304 496.665 296.549 497.33 296.006C497.994 295.463 498.825 295.166 499.683 295.164H514.565C514.96 295.168 515.35 295.257 515.709 295.423C516.068 295.59 516.387 295.831 516.645 296.131C516.907 296.425 517.104 296.771 517.224 297.146C517.344 297.521 517.384 297.917 517.342 298.308L514.865 320.409C514.865 320.69 514.787 320.97 514.739 321.241C514.249 323.429 513.018 325.381 511.255 326.767C509.492 328.153 507.305 328.887 505.063 328.847L494.186 328.779Z" fill="#455A64"/>
<path d="M471.931 325.15C472.024 324.064 472.245 322.992 472.589 321.957L481.201 295.212H486.126C486.689 295.21 487.246 295.332 487.757 295.567C488.269 295.803 488.722 296.147 489.087 296.576C489.445 297.001 489.701 297.501 489.837 298.039C489.973 298.577 489.984 299.139 489.871 299.682L485.12 322.17C484.921 323.013 484.444 323.765 483.767 324.305C483.09 324.846 482.251 325.143 481.385 325.15H471.931Z" fill="#455A64"/>
<path d="M634.85 359.859H469.735C468.477 359.859 468.477 355.292 469.735 355.292H634.85C636.118 355.292 636.118 359.859 634.85 359.859Z" fill="#263238"/>
<path d="M534.208 308.546C534.208 308.546 534.208 308.633 534.208 308.797V309.513C534.208 310.181 534.208 311.1 534.149 312.261C534.072 314.69 533.966 318.135 533.84 322.373C533.714 326.611 533.511 331.74 533.317 337.371C533.259 338.784 533.211 340.274 533.153 341.706C533.177 343.257 532.846 344.793 532.185 346.196C531.777 346.909 531.231 347.534 530.577 348.032C529.924 348.531 529.178 348.894 528.382 349.099C526.806 349.524 525.177 349.719 523.544 349.68L490.151 349.051L480.04 348.799L477.292 348.702H476.576C476.496 348.715 476.414 348.715 476.334 348.702C476.414 348.687 476.496 348.687 476.576 348.702H480.04L490.161 348.799L523.544 349.273C525.13 349.32 526.714 349.138 528.247 348.731C528.977 348.551 529.663 348.227 530.266 347.778C530.869 347.33 531.377 346.766 531.759 346.119C532.405 344.786 532.736 343.323 532.727 341.842C532.795 340.371 532.853 338.939 532.911 337.507C533.143 331.875 533.356 326.795 533.54 322.518C533.724 318.241 533.898 314.835 534.014 312.407C534.072 311.245 534.13 310.326 534.159 309.659C534.159 309.368 534.159 309.136 534.217 308.952C534.172 308.821 534.169 308.679 534.208 308.546Z" fill="#263238"/>
<path d="M487.152 349.322C487.007 349.322 486.9 344.483 486.9 338.513C486.9 332.543 487.007 327.695 487.152 327.695C487.297 327.695 487.403 332.533 487.403 338.513C487.403 344.493 487.287 349.322 487.152 349.322Z" fill="#263238"/>
<path d="M495.793 288.564C495.768 289.087 495.706 289.608 495.609 290.122C495.464 291.09 495.222 292.57 494.902 294.351C494.274 297.911 493.316 302.817 492.116 308.197C490.916 313.577 489.677 318.435 488.729 321.918C488.255 323.67 487.858 325.073 487.558 326.04C487.437 326.551 487.268 327.05 487.055 327.53C487.124 327.01 487.231 326.496 487.374 325.992C487.636 324.928 487.974 323.524 488.39 321.831C489.242 318.319 490.413 313.471 491.622 308.091C492.832 302.711 493.838 297.824 494.525 294.283L495.386 290.093C495.47 289.571 495.606 289.059 495.793 288.564Z" fill="#263238"/>
<path d="M514.903 337.575C515.221 337.5 515.524 337.376 515.803 337.207C516.102 336.982 516.319 336.666 516.423 336.307C516.541 335.837 516.479 335.34 516.248 334.914C516.103 334.668 515.892 334.467 515.639 334.334C515.386 334.201 515.101 334.14 514.816 334.159H512.62H507.598C507.224 334.165 506.867 334.31 506.595 334.566C506.323 334.822 506.156 335.17 506.127 335.543C506.071 335.89 506.136 336.247 506.313 336.552C506.489 336.857 506.765 337.092 507.095 337.217C507.249 337.274 507.413 337.304 507.578 337.304H509.194H511.13C512.3 337.304 513.249 337.352 513.897 337.381C514.239 337.367 514.58 337.399 514.913 337.478C514.58 337.556 514.239 337.589 513.897 337.575C513.249 337.575 512.3 337.633 511.13 337.652H509.194H507.598C507.381 337.654 507.166 337.621 506.959 337.555C506.526 337.4 506.158 337.102 505.917 336.709C505.676 336.317 505.576 335.854 505.634 335.397C505.656 334.899 505.87 334.429 506.23 334.085C506.591 333.741 507.07 333.549 507.569 333.549H512.591H514.787C515.138 333.537 515.485 333.621 515.792 333.792C516.099 333.962 516.354 334.213 516.529 334.517C516.673 334.788 516.753 335.09 516.761 335.397C516.778 335.662 516.745 335.928 516.664 336.181C516.524 336.585 516.247 336.927 515.881 337.149C515.66 337.291 515.407 337.374 515.145 337.391C514.99 337.613 514.903 337.584 514.903 337.575Z" fill="#0B9160"/>
<path d="M623.994 313.829C623.994 313.974 617.22 314.081 608.918 314.081C600.616 314.081 593.842 313.974 593.842 313.829C593.842 313.684 600.616 313.577 608.918 313.577C617.22 313.577 623.994 313.694 623.994 313.829Z" fill="#263238"/>
<path d="M623.994 316.829C623.994 316.974 617.22 317.09 608.918 317.09C600.616 317.09 593.842 316.974 593.842 316.829C593.842 316.684 600.616 316.577 608.918 316.577C617.22 316.577 623.994 316.693 623.994 316.829Z" fill="#263238"/>
<path d="M623.994 319.838C623.994 319.973 617.22 320.089 608.918 320.089C600.616 320.089 593.842 319.973 593.842 319.838C593.842 319.702 600.616 319.586 608.918 319.586C617.22 319.586 623.994 319.693 623.994 319.838Z" fill="#263238"/>
<path d="M623.994 322.838C623.994 322.973 617.22 323.089 608.918 323.089C600.616 323.089 593.842 322.973 593.842 322.838C593.842 322.702 600.616 322.586 608.918 322.586C617.22 322.586 623.994 322.693 623.994 322.838Z" fill="#263238"/>
<path d="M623.994 325.837C623.994 325.973 617.22 326.089 608.918 326.089C600.616 326.089 593.842 325.973 593.842 325.837C593.842 325.702 600.616 325.586 608.918 325.586C617.22 325.586 623.994 325.692 623.994 325.837Z" fill="#263238"/>
<path d="M623.994 328.837C623.994 328.972 617.22 329.088 608.918 329.088C600.616 329.088 593.842 328.972 593.842 328.837C593.842 328.701 600.616 328.585 608.918 328.585C617.22 328.585 623.994 328.692 623.994 328.837Z" fill="#263238"/>
<path d="M623.994 331.837C623.994 331.972 617.22 332.088 608.918 332.088C600.616 332.088 593.842 331.972 593.842 331.837C593.842 331.701 600.616 331.585 608.918 331.585C617.22 331.585 623.994 331.691 623.994 331.837Z" fill="#263238"/>
<path d="M452.83 403.102C443.783 403.102 436.168 394.394 436.168 385.317C436.168 376.241 444.131 368.635 453.178 368.635L598.932 362.017C602.632 361.814 606.313 362.664 609.548 364.469C612.784 366.275 615.441 368.961 617.211 372.216C619.367 376.37 619.945 381.166 618.836 385.714C614.966 403.325 600.345 403.131 594.646 402.734C588.946 402.338 452.83 403.102 452.83 403.102Z" fill="#263238"/>
<path d="M452.83 398.825C460.349 398.825 466.445 392.73 466.445 385.211C466.445 377.692 460.349 371.596 452.83 371.596C445.311 371.596 439.216 377.692 439.216 385.211C439.216 392.73 445.311 398.825 452.83 398.825Z" fill="#455A64"/>
<path d="M598.013 400.054C607.739 400.054 615.624 392.17 615.624 382.443C615.624 372.717 607.739 364.833 598.013 364.833C588.287 364.833 580.402 372.717 580.402 382.443C580.402 392.17 588.287 400.054 598.013 400.054Z" fill="#455A64"/>
<path d="M599.977 365.394L599.6 365.452L598.487 365.578L594.21 366.003C590.485 366.371 585.105 366.855 578.438 367.397C565.123 368.49 546.7 369.758 526.331 370.658C505.963 371.558 487.481 371.916 474.079 371.993C467.393 371.993 461.994 371.993 458.249 371.993L453.953 371.935H452.83C452.705 371.95 452.578 371.95 452.453 371.935H452.83H453.953H458.249L474.079 371.78C487.432 371.606 505.895 371.19 526.263 370.3C546.632 369.409 565.056 368.19 578.37 367.184L594.152 365.955L598.439 365.616L599.561 365.549C599.692 365.478 599.832 365.426 599.977 365.394Z" fill="#455A64"/>
<path d="M594.375 398.39C594.375 398.525 562.685 398.641 523.593 398.641C484.501 398.641 452.811 398.525 452.811 398.39C452.811 398.254 484.491 398.138 523.593 398.138C562.695 398.138 594.375 398.245 594.375 398.39Z" fill="#455A64"/>
<path d="M477.108 348.848C476.724 347.724 476.401 346.581 476.14 345.422C475.55 343.303 474.689 340.381 473.818 337.12C473.032 334.349 472.425 331.531 471.999 328.682C471.888 327.813 471.836 326.936 471.844 326.06C471.836 325.733 471.879 325.407 471.97 325.092C472.047 325.092 471.97 326.457 472.347 328.614C472.724 330.772 473.431 333.743 474.282 336.984C475.134 340.226 475.966 343.168 476.469 345.325C476.721 346.399 476.914 347.261 477.011 347.88C477.09 348.196 477.123 348.522 477.108 348.848Z" fill="#0B9160"/>
<path d="M588.317 393.32C587.951 393.143 587.609 392.918 587.301 392.652C586.442 391.961 585.681 391.157 585.037 390.262C584.069 388.928 583.351 387.43 582.918 385.84C582.354 383.89 582.261 381.835 582.648 379.843C583.035 377.851 583.89 375.979 585.144 374.383C586.143 373.076 587.369 371.958 588.762 371.083C589.699 370.495 590.712 370.036 591.772 369.719C592.153 369.588 592.55 369.507 592.952 369.477C591.552 369.97 590.211 370.619 588.956 371.412C587.632 372.305 586.468 373.414 585.511 374.693C584.324 376.245 583.512 378.052 583.14 379.971C582.767 381.889 582.844 383.868 583.363 385.753C583.752 387.296 584.407 388.76 585.298 390.078C586.174 391.274 587.187 392.362 588.317 393.32Z" fill="#FAFAFA"/>
<path d="M511.817 310.578C509.394 312.639 506.868 314.577 504.25 316.384C501.729 318.313 499.106 320.106 496.393 321.754C498.815 319.692 501.341 317.755 503.959 315.948C506.48 314.018 509.103 312.226 511.817 310.578Z" fill="white"/>
<path d="M512.978 306.465C510.882 308.235 508.682 309.876 506.388 311.381C504.189 313.02 501.892 314.523 499.508 315.88C501.607 314.114 503.807 312.473 506.098 310.965C508.298 309.327 510.596 307.824 512.978 306.465Z" fill="white"/>
<path d="M484.568 312.813C483.567 313.823 482.446 314.707 481.23 315.445C480.108 316.327 478.887 317.073 477.592 317.67C478.603 316.668 479.727 315.785 480.94 315.039C482.057 314.156 483.275 313.409 484.568 312.813Z" fill="white"/>
<path d="M486.552 308.962C484.114 311.273 481.453 313.338 478.608 315.126C481.041 312.808 483.702 310.743 486.552 308.962Z" fill="white"/>
<path d="M516.935 332.504C513.337 332.84 509.716 332.84 506.117 332.504C509.716 332.169 513.337 332.169 516.935 332.504Z" fill="#0B9160"/>
<path d="M450.121 396.764C449.717 396.739 449.319 396.654 448.94 396.513C447.88 396.175 446.876 395.683 445.96 395.052C444.599 394.11 443.432 392.914 442.525 391.53C441.378 389.838 440.698 387.873 440.554 385.834C440.409 383.796 440.805 381.755 441.702 379.918C442.401 378.418 443.387 377.07 444.605 375.951C445.422 375.194 446.349 374.564 447.353 374.083C447.712 373.898 448.092 373.758 448.486 373.667C447.171 374.354 445.951 375.21 444.857 376.212C443.711 377.321 442.783 378.633 442.119 380.083C441.277 381.856 440.907 383.816 441.044 385.773C441.181 387.731 441.821 389.621 442.902 391.259C443.761 392.614 444.868 393.796 446.163 394.742C447.387 395.589 448.718 396.269 450.121 396.764Z" fill="#FAFAFA"/>
<path d="M470.77 343.051C470.77 343.187 465.525 343.303 459.052 343.303C452.578 343.303 447.324 343.187 447.324 343.051C447.324 342.916 452.569 342.8 459.052 342.8C465.535 342.8 470.77 342.916 470.77 343.051Z" fill="white"/>
<path d="M365.086 56.3434L356.261 37.3876C355.612 35.9935 354.694 34.7409 353.561 33.7014C352.428 32.6619 351.101 31.8559 349.656 31.3293C348.211 30.8027 346.677 30.566 345.14 30.6326C343.604 30.6991 342.095 31.0677 340.702 31.7173C339.307 32.3664 338.055 33.2839 337.015 34.4172C335.976 35.5505 335.17 36.8775 334.643 38.3224C334.117 39.7673 333.88 41.3018 333.947 42.8382C334.013 44.3746 334.382 45.8828 335.031 47.2767L343.866 66.2229C343.904 66.3112 343.96 66.3908 344.03 66.4567C344.101 66.5225 344.184 66.5734 344.274 66.606C344.365 66.6386 344.461 66.6524 344.557 66.6464C344.654 66.6404 344.747 66.6148 344.833 66.5712L364.766 57.282C364.932 57.1988 365.059 57.0537 365.118 56.8781C365.178 56.7025 365.166 56.5104 365.086 56.3434Z" fill="#0B9160"/>
<path d="M26.784 311.304H21.8104V402.735H26.784V311.304Z" fill="#E0E0E0"/>
<path d="M29.3288 308.169C29.3288 309.16 29.0349 310.129 28.4841 310.953C27.9334 311.777 27.1505 312.42 26.2347 312.799C25.3188 313.179 24.311 313.278 23.3387 313.085C22.3664 312.891 21.4733 312.414 20.7723 311.713C20.0713 311.012 19.5939 310.119 19.4005 309.146C19.2071 308.174 19.3064 307.166 19.6858 306.25C20.0651 305.335 20.7076 304.552 21.5319 304.001C22.3561 303.45 23.3252 303.156 24.3165 303.156C25.6459 303.156 26.9208 303.684 27.8608 304.624C28.8008 305.564 29.3288 306.839 29.3288 308.169Z" fill="#0B9160"/>
<path d="M125.617 311.304H120.644V402.735H125.617V311.304Z" fill="#E0E0E0"/>
<path d="M128.162 308.169C128.162 309.16 127.868 310.129 127.318 310.953C126.767 311.777 125.984 312.42 125.068 312.799C124.152 313.179 123.144 313.278 122.172 313.085C121.2 312.891 120.307 312.414 119.606 311.713C118.905 311.012 118.427 310.119 118.234 309.146C118.041 308.174 118.14 307.166 118.519 306.25C118.899 305.335 119.541 304.552 120.365 304.001C121.19 303.45 122.159 303.156 123.15 303.156C124.479 303.156 125.754 303.684 126.694 304.624C127.634 305.564 128.162 306.839 128.162 308.169Z" fill="#0B9160"/>
<path d="M135.042 320.128H7.61525V342.926H135.042V320.128Z" fill="#0B9160"/>
<path d="M22.0329 320.119L21.8103 320.506L8.71834 342.926H7.61525V320.119H22.0329Z" fill="#F5F5F5"/>
<path d="M54.2452 320.119L40.9113 342.926H23.5037L28.7967 333.869L36.828 320.119H54.2452Z" fill="#F5F5F5"/>
<path d="M86.4381 320.119L73.1139 342.926H55.6966L69.0209 320.119H86.4381Z" fill="#F5F5F5"/>
<path d="M118.621 320.128L105.297 342.926H87.8896L101.214 320.128H118.621Z" fill="#F5F5F5"/>
<path d="M135.042 320.128V342.926H120.083L133.416 320.128H135.042Z" fill="#F5F5F5"/>
<path d="M135.042 355.34H7.61525V378.138H135.042V355.34Z" fill="#0B9160"/>
<path d="M22.0329 355.35L21.8103 355.727L8.71834 378.147H7.61525V355.35H22.0329Z" fill="#F5F5F5"/>
<path d="M54.2452 355.35L40.9113 378.147H23.5037L28.7967 369.09L36.828 355.35H54.2452Z" fill="#F5F5F5"/>
<path d="M86.4381 355.35L73.1139 378.147H55.6966L69.0209 355.35H86.4381Z" fill="#F5F5F5"/>
<path d="M118.621 355.35L105.297 378.147H87.8896L101.214 355.35H118.621Z" fill="#F5F5F5"/>
<path d="M135.042 355.35V378.147H120.083L133.416 355.35H135.042Z" fill="#F5F5F5"/>
<path d="M135.042 342.925C135.042 342.925 135.042 342.79 135.042 342.529C135.042 342.267 135.042 341.88 135.042 341.387C135.042 340.371 135.042 338.89 135.042 336.955C135.042 333.085 134.994 327.395 134.965 320.128L135.1 320.254L7.62493 320.409L7.87652 320.157V342.955L7.62493 342.703L98.34 342.809L125.24 342.887H132.507H134.394H135.052H134.423H132.565H125.356L98.5141 342.955L7.62493 343.061H7.37335V319.867H7.63461L135.052 319.993H135.178V320.128C135.178 327.424 135.119 333.133 135.11 337.033C135.11 338.968 135.11 340.429 135.11 341.435C135.11 341.919 135.11 342.287 135.11 342.558C135.11 342.829 135.042 342.925 135.042 342.925Z" fill="#263238"/>
<path d="M135.042 378.147C135.042 378.147 135.042 378.002 135.042 377.751C135.042 377.499 135.042 377.102 135.042 376.609C135.042 375.593 135.042 374.112 135.042 372.177C135.042 368.307 134.994 362.617 134.965 355.34L135.1 355.476L7.68302 355.592L7.93461 355.34V378.147L7.68302 377.896L98.3981 378.002L125.298 378.08H132.565H134.452C134.878 378.08 135.11 378.08 135.11 378.08H134.481H132.623H125.414L98.5722 378.157L7.68302 378.263H7.43144V355.089H7.6927L135.11 355.215H135.236V355.34C135.236 362.646 135.178 368.355 135.168 372.254C135.168 374.19 135.168 375.651 135.168 376.657C135.168 377.141 135.168 377.509 135.168 377.78C135.168 378.051 135.042 378.147 135.042 378.147Z" fill="#263238"/>
<path d="M628.532 403.102C628.532 403.238 487.819 403.354 314.285 403.354C140.751 403.354 0 403.238 0 403.102C0 402.967 140.683 402.851 314.285 402.851C487.887 402.851 628.532 402.957 628.532 403.102Z" fill="#263238"/>
</svg>
