<svg width="608" height="146" viewBox="0 0 608 146" fill="none" xmlns="http://www.w3.org/2000/svg">
<path d="M111.527 35.7094C118.42 35.7094 124.328 37.2243 129.251 40.2541C134.175 43.2081 137.924 47.7528 140.499 53.8881C143.151 60.0234 144.476 67.863 144.476 77.4068V131.716H124.934V81.3834C124.934 71.3093 123.533 63.7349 120.73 58.66C117.928 53.5851 112.815 51.0477 105.392 51.0477C101.453 51.0477 97.6659 52.146 94.0302 54.3426C90.4702 56.4634 87.5162 59.7583 85.1681 64.2272C82.8958 68.6962 81.7596 74.4149 81.7596 81.3834V131.716H63.3537V81.3834C63.3537 71.3093 61.6115 63.7349 58.1273 58.66C54.643 53.5851 49.7575 51.0477 43.4707 51.0477C39.4563 51.0477 35.669 52.1081 32.1091 54.229C28.6248 56.2741 25.7844 59.5311 23.5878 64C21.3912 68.4689 20.2929 74.2634 20.2929 81.3834V131.716H0.637207V38.4362H20.2929V52.7519C21.1261 50.4039 22.9061 47.9043 25.6329 45.2532C28.4354 42.6022 31.9954 40.3677 36.3129 38.5498C40.7061 36.6562 45.5916 35.7094 50.9694 35.7094C56.5745 35.7094 61.2707 36.8456 65.0579 39.1179C68.8451 41.3903 71.837 44.1928 74.0336 47.5256C76.2302 50.7826 77.7451 53.926 78.5783 56.9558C79.6387 53.6987 81.6838 50.4417 84.7136 47.1847C87.7434 43.852 91.5685 41.1252 96.1889 39.0043C100.809 36.8077 105.922 35.7094 111.527 35.7094Z" fill="#07744C"/>
<path d="M240.246 131.716V113.537C239.641 115.431 237.861 118.044 234.906 121.376C232.028 124.709 228.052 127.739 222.977 130.466C217.978 133.117 213.381 134.442 206.564 134.442C197.929 134.442 191.4 132.397 184.356 128.307C177.388 124.217 171.82 118.498 167.654 111.151C163.564 103.728 161.519 95.0552 161.519 85.1327C161.519 75.2102 163.564 66.5753 167.654 59.2281C171.82 51.8051 177.388 46.0485 184.356 41.9583C191.4 37.7924 197.929 35.7094 206.564 35.7094C213.305 35.7094 217.826 36.9213 222.749 39.3452C227.749 41.769 231.725 44.5715 234.679 47.7528C237.709 50.9341 239.489 53.6609 240.019 55.9332V38.4362H256.939V131.716H240.246Z" fill="#07744C"/>
<path d="M274.091 38.4362H293.694V0.147369H313.35V38.4362H337.323V55.3651H313.35V101.494C313.35 106.947 314.297 110.962 316.19 113.537C318.16 116.112 320.773 117.4 324.03 117.4C326.908 117.4 329.142 116.87 330.733 115.809C332.324 114.749 333.271 114.029 333.574 113.651L341.413 128.193C340.959 128.572 339.747 129.292 337.777 130.352C335.808 131.413 333.271 132.359 330.165 133.193C327.06 134.026 323.424 134.442 319.258 134.442C311.986 134.442 305.889 132.246 300.966 127.853C296.118 123.384 293.694 116.339 293.694 106.72V55.3651H274.091V38.4362Z" fill="#07744C"/>
<path d="M349.519 38.4362H367.811V0.147369H387.467V38.4362H411.44V55.3651H387.467V101.494C387.467 106.947 388.414 110.962 390.307 113.537C392.277 116.112 394.89 117.4 398.147 117.4C401.025 117.4 403.26 116.87 404.85 115.809C406.441 114.749 407.388 114.029 407.691 113.651L415.53 128.193C415.076 128.572 413.864 129.292 411.895 130.352C409.925 131.413 407.388 132.359 404.282 133.193C401.177 134.026 397.541 134.442 393.375 134.442C386.104 134.442 380.006 132.246 375.083 127.853C370.235 123.384 367.811 116.339 367.811 106.72V55.3651H349.519V38.4362Z" fill="#07744C"/>
<path d="M560.418 131.716H540.763V38.4362H560.418V54.5698H559.85C560.229 52.6004 561.63 50.1387 564.054 47.1847C566.478 44.2307 569.811 41.5796 574.052 39.2315C578.294 36.8835 583.369 35.7094 589.277 35.7094C593.594 35.7094 597.382 36.3154 600.639 37.5273C603.971 38.6635 606.319 39.7996 607.683 40.9358L599.616 57.2966C598.556 56.2362 596.7 55.1758 594.049 54.1153C591.398 52.9792 588.103 52.4111 584.164 52.4111C579.165 52.4111 574.885 53.9638 571.326 57.0694C567.766 60.1749 565.039 63.9242 563.145 68.3174C561.327 72.6349 560.418 76.6493 560.418 80.3608V131.716Z" fill="#07744C"/>
<path d="M447.3 96.6639C448.933 102.027 451.519 106.6 455.06 110.385C458.601 114.169 462.97 116.728 468.167 118.062C473.436 119.374 479.345 119.082 485.893 117.185C491.422 115.583 495.883 113.424 499.275 110.706C502.719 107.895 505.351 105.003 507.171 102.031C508.97 98.9862 510.152 96.3963 510.717 94.2614L523.312 103.033C521.923 107.22 519.862 111.13 517.128 114.76C514.468 118.37 510.864 121.583 506.317 124.398C501.791 127.286 495.964 129.763 488.834 131.829C479.23 134.611 470.31 134.987 462.073 132.957C453.887 130.834 446.849 126.682 440.958 120.503C435.046 114.251 430.72 106.396 427.98 96.9379C425.451 88.2075 424.957 79.8338 426.499 71.8168C428.019 63.727 431.573 56.6649 437.158 50.6307C442.817 44.5753 450.448 40.1566 460.051 37.3745C468.854 34.8243 477.031 34.4665 484.581 36.3011C492.182 38.0419 498.735 41.7425 504.239 47.4031C509.816 53.0425 513.953 60.5185 516.651 69.8309C516.819 70.4129 517.089 71.4784 517.459 73.0273C517.807 74.5034 518.03 75.543 518.125 76.1461L447.3 96.6639ZM496.196 67.0033C495.259 64.0415 493.437 61.0205 490.731 57.9404C488.098 54.8391 484.594 52.5423 480.218 51.0497C475.843 49.5572 470.563 49.7067 464.379 51.4981C457.977 53.3529 453.17 56.0861 449.958 59.6978C446.819 63.2885 444.856 67.1297 444.07 71.2215C443.263 75.2406 443.177 78.8928 443.814 82.1783L496.196 67.0033Z" fill="#07744C"/>
<path d="M229.538 74.5883L227.632 75.3239C227.169 75.5133 225.823 76.064 225.014 76.418C223.398 77.1254 221.195 78.1425 218.855 79.3808C216.519 80.6171 209.483 84.8537 206.26 90.4118C203.688 94.8459 203.903 98.8672 204.995 102.734C205.551 104.706 206.396 106.295 206.953 107.531C207.187 108.05 207.398 108.485 207.565 108.816C206.051 111.942 204.361 112.465 202.517 113.537C202.333 114.172 203.608 115.797 205.009 115.908C207.216 114.356 207.932 113.028 210.103 110.56C210.462 110.533 211.398 110.573 211.947 110.508C213.256 110.353 215.049 110.066 216.981 109.536C220.778 108.495 224.921 106.705 227.464 102.319C230.688 96.7611 230.447 88.7226 230.416 86.1134C230.384 83.5001 230.228 81.116 230.081 79.386C230.007 78.5203 229.936 77.8164 229.882 77.3272C229.855 77.0857 229.809 76.6957 229.792 76.56L229.792 76.5549L229.538 74.5883Z" fill="white"/>
<path d="M211.883 49.2747L212.598 51.6765L213.405 54.3856L213.407 54.3942L213.41 54.4029L213.412 54.4097L213.412 54.4099L213.413 54.413C213.466 54.6003 213.623 55.1446 213.718 55.4882L211.883 49.2747ZM211.883 49.2747L209.72 50.5401M211.883 49.2747L209.72 50.5401M209.72 50.5401L207.207 52.0104L207.19 52.0201M209.72 50.5401L207.19 52.0201M207.19 52.0201L207.174 52.0301M207.19 52.0201L207.174 52.0301M207.174 52.0301C206.571 52.3987 204.781 53.4945 203.699 54.1931C201.558 55.5757 198.65 57.5379 195.591 59.8518C194.018 61.0419 190.943 63.5775 187.833 66.9236C184.74 70.2512 181.499 74.4987 179.737 79.116C176.884 86.5897 178.261 92.7694 180.826 98.2747C181.884 100.545 183.186 102.441 184.168 103.872C184.406 104.219 184.626 104.539 184.819 104.831L186.459 103.745M207.174 52.0301L186.459 103.745M186.459 103.745L184.819 104.831C185.038 105.161 185.244 105.465 185.436 105.742C184.865 107.313 184.2 108.286 183.511 109.028C182.893 109.694 182.291 110.159 181.544 110.737C181.183 111.016 180.788 111.322 180.341 111.689L179.731 112.189M186.459 103.745L179.731 112.189M179.731 112.189L179.637 112.973M179.731 112.189L179.637 112.973M179.637 112.973C179.52 113.938 179.977 114.745 180.275 115.176C180.63 115.691 181.106 116.167 181.625 116.565C182.622 117.329 184.137 118.072 185.797 117.936L186.504 117.878M179.637 112.973L186.504 117.878M186.504 117.878L187.011 117.382M186.504 117.878L187.011 117.382M187.011 117.382C189.183 115.261 190.277 113.374 191.609 111.078C191.977 110.444 192.363 109.778 192.795 109.068C192.889 109.053 192.99 109.036 193.101 109.017C193.577 108.938 194.205 108.828 194.707 108.685C196.579 108.149 199.133 107.304 201.844 106.066C207.115 103.657 213.113 99.9044 215.966 92.4298C217.74 87.7832 218.005 82.5161 217.784 78.0587C217.578 73.9105 216.94 70.3057 216.595 68.3532C216.567 68.196 216.541 68.0494 216.517 67.9142C215.865 64.1852 215.091 60.818 214.481 58.3855L212.573 58.864M187.011 117.382L212.573 58.864M212.573 58.864L214.481 58.3855C214.175 57.167 213.909 56.1777 213.718 55.4882L212.573 58.864Z" fill="white" stroke="#07744C" stroke-width="3.9334"/>
</svg>
