<svg width="978" height="235" viewBox="0 0 978 235" fill="none" xmlns="http://www.w3.org/2000/svg">
<path d="M178.846 57.3342C189.944 57.3342 199.456 59.7765 207.383 64.6612C215.31 69.4238 221.347 76.7508 225.494 86.6423C229.762 96.5338 231.896 109.173 231.896 124.56V212.118H200.432V130.971C200.432 114.729 198.176 102.518 193.663 94.3357C189.151 86.1539 180.919 82.0629 168.968 82.0629C162.626 82.0629 156.528 83.8336 150.674 87.375C144.943 90.7943 140.186 96.1064 136.406 103.311C132.747 110.516 130.918 119.736 130.918 130.971V212.118H101.283V130.971C101.283 114.729 98.4778 102.518 92.8679 94.3357C87.258 86.1539 79.3919 82.0629 69.2697 82.0629C62.8061 82.0629 56.7083 83.7726 50.9765 87.1919C45.3666 90.489 40.7933 95.7401 37.2566 102.945C33.7199 110.15 31.9515 119.492 31.9515 130.971V212.118H0.304321V61.7304H31.9515V84.8106C33.293 81.0249 36.159 76.9951 40.5494 72.7209C45.0617 68.4468 50.7935 64.8444 57.745 61.9136C64.8183 58.8606 72.6844 57.3342 81.3432 57.3342C90.3678 57.3342 97.929 59.1659 104.027 62.8294C110.124 66.493 114.942 71.0113 118.478 76.3845C122.015 81.6355 124.454 86.7034 125.796 91.5881C127.503 86.337 130.796 81.086 135.674 75.8349C140.552 70.4618 146.711 66.0655 154.15 62.6463C161.589 59.1049 169.821 57.3342 178.846 57.3342Z" fill="#07744C"/>
<path d="M386.094 212.118V182.81C385.118 185.863 382.253 190.076 377.496 195.449C372.862 200.822 366.459 205.707 358.288 210.103C350.239 214.377 342.838 216.514 331.862 216.514C317.959 216.514 307.448 213.217 296.106 206.623C284.886 200.028 275.923 190.809 269.215 178.963C262.63 166.996 259.337 153.013 259.337 137.016C259.337 121.018 262.63 107.097 269.215 95.2516C275.923 83.2841 284.886 74.0032 296.106 67.4088C307.448 60.6924 317.959 57.3342 331.862 57.3342C342.716 57.3342 349.996 59.288 357.923 63.1958C365.972 67.1036 372.374 71.6219 377.13 76.7508C382.009 81.8798 384.875 86.276 385.728 89.9395V61.7304H412.97V212.118H386.094Z" fill="#07744C"/>
<path d="M440.586 61.7304H472.149V0H503.796V61.7304H542.395V89.0236H503.796V163.393C503.796 172.186 505.321 178.658 508.369 182.81C511.54 186.962 515.748 189.038 520.992 189.038C525.626 189.038 529.224 188.183 531.785 186.473C534.346 184.764 535.87 183.604 536.358 182.993L548.98 206.44C548.249 207.05 546.297 208.21 543.127 209.92C539.956 211.63 535.87 213.156 530.87 214.499C525.87 215.843 520.016 216.514 513.309 216.514C501.601 216.514 491.784 212.973 483.857 205.89C476.051 198.685 472.149 187.328 472.149 171.819V89.0236H440.586V61.7304Z" fill="#07744C"/>
<path d="M562.031 61.7304H591.483V0H623.131V61.7304H661.729V89.0236H623.131V163.393C623.131 172.186 624.655 178.658 627.704 182.81C630.875 186.962 635.082 189.038 640.326 189.038C644.961 189.038 648.558 188.183 651.119 186.473C653.68 184.764 655.205 183.604 655.693 182.993L668.315 206.44C667.583 207.05 665.632 208.21 662.461 209.92C659.29 211.63 655.205 213.156 650.205 214.499C645.204 215.843 639.351 216.514 632.643 216.514C620.935 216.514 611.118 212.973 603.191 205.89C595.386 198.685 591.483 187.328 591.483 171.819V89.0236H562.031V61.7304Z" fill="#07744C"/>
<path d="M901.596 212.118H869.949V61.7304H901.596V87.7414H900.681C901.291 84.5663 903.547 80.5975 907.45 75.8349C911.352 71.0724 916.718 66.7983 923.548 63.0126C930.377 59.227 938.548 57.3342 948.061 57.3342C955.012 57.3342 961.11 58.3111 966.354 60.265C971.72 62.0967 975.5 63.9285 977.696 65.7603L964.707 92.1376C963 90.428 960.012 88.7183 955.744 87.0087C951.475 85.1769 946.17 84.2611 939.829 84.2611C931.78 84.2611 924.889 86.7645 919.157 91.7713C913.426 96.7781 909.035 102.823 905.986 109.906C903.059 116.866 901.596 123.339 901.596 129.322V212.118Z" fill="#07744C"/>
<path d="M719.467 155.607C722.095 164.253 726.26 171.626 731.961 177.728C737.663 183.83 744.697 187.955 753.064 190.105C761.548 192.221 771.062 191.75 781.604 188.692C790.506 186.109 797.689 182.627 803.15 178.246C808.695 173.713 812.933 169.051 815.864 164.26C818.761 159.351 820.664 155.175 821.572 151.733L841.852 165.875C839.615 172.626 836.296 178.929 831.895 184.783C827.612 190.602 821.809 195.782 814.489 200.321C807.202 204.977 797.819 208.971 786.339 212.301C770.877 216.786 756.515 217.393 743.252 214.12C730.072 210.696 718.74 204.003 709.256 194.041C699.737 183.961 692.772 171.297 688.36 156.049C684.288 141.973 683.493 128.473 685.975 115.548C688.423 102.505 694.144 91.1194 703.138 81.3908C712.248 71.6282 724.535 64.5042 739.997 60.0189C754.171 55.9073 767.336 55.3304 779.492 58.2882C791.731 61.0948 802.281 67.0611 811.143 76.1872C820.122 85.2793 826.783 97.3322 831.127 112.346C831.398 113.284 831.832 115.002 832.427 117.499C832.989 119.879 833.347 121.555 833.501 122.527L719.467 155.607ZM798.193 107.787C796.684 103.012 793.752 98.1416 789.395 93.1757C785.155 88.1758 779.512 84.4728 772.468 82.0664C765.423 79.6601 756.923 79.9011 746.966 82.7894C736.658 85.7796 728.918 90.1862 723.746 96.0091C718.691 101.798 715.531 107.991 714.266 114.588C712.966 121.067 712.829 126.956 713.853 132.253L798.193 107.787Z" fill="#07744C"/>
<path d="M368.852 120.016L365.784 121.202C365.038 121.507 362.871 122.395 361.569 122.966C358.966 124.106 355.42 125.746 351.653 127.742C347.891 129.736 336.562 136.566 331.373 145.527C327.232 152.676 327.579 159.159 329.336 165.394C330.232 168.572 331.591 171.135 332.489 173.126C332.866 173.964 333.205 174.665 333.474 175.199C331.037 180.239 328.316 181.081 325.346 182.809C325.051 183.833 327.103 186.453 329.359 186.632C332.913 184.13 334.065 181.989 337.56 178.011C338.138 177.967 339.646 178.031 340.53 177.927C342.637 177.677 345.524 177.214 348.634 176.36C354.749 174.681 361.419 171.795 365.514 164.724C370.704 155.764 370.317 142.804 370.266 138.597C370.214 134.384 369.964 130.54 369.727 127.751C369.608 126.355 369.493 125.22 369.406 124.432C369.364 124.042 369.288 123.413 369.262 123.194L369.261 123.186L368.852 120.016Z" fill="white"/>
<path d="M333.033 83.8527L333.009 83.867L332.985 83.8817C332.013 84.4765 329.134 86.2413 327.396 87.3654C323.953 89.5918 319.276 92.7515 314.358 96.4768C311.834 98.388 306.898 102.465 301.903 107.846C296.933 113.199 291.742 120.017 288.923 127.413C284.365 139.37 286.56 149.253 290.67 158.086C292.363 161.723 294.441 164.755 296.022 167.062C296.408 167.625 296.765 168.145 297.079 168.62C297.46 169.197 297.82 169.726 298.149 170.2C297.208 172.845 296.101 174.481 294.944 175.728C293.933 176.817 292.938 177.588 291.725 178.528C291.146 178.977 290.517 179.464 289.813 180.043L288.917 180.779L288.778 181.932C288.603 183.385 289.291 184.615 289.759 185.294C290.312 186.097 291.057 186.845 291.875 187.473C293.45 188.681 295.825 189.84 298.407 189.628L299.447 189.543L300.193 188.813C303.66 185.421 305.397 182.423 307.534 178.733C308.149 177.673 308.796 176.555 309.528 175.354C309.712 175.324 309.917 175.29 310.144 175.252C310.911 175.124 311.908 174.949 312.699 174.723C315.704 173.861 319.804 172.504 324.152 170.515C332.616 166.642 342.193 160.632 346.747 148.683C349.582 141.244 350.01 132.797 349.655 125.627C349.325 118.957 348.301 113.161 347.745 110.013C347.7 109.76 347.658 109.523 347.62 109.305C346.572 103.302 345.326 97.8797 344.345 93.9624C343.853 92.0004 343.426 90.4074 343.119 89.2977C342.966 88.7439 342.713 87.8646 342.627 87.5646L342.626 87.5607L342.623 87.5505L342.619 87.5378L342.616 87.5252L341.317 83.1576L340.264 79.6167L337.08 81.4822L333.033 83.8527Z" fill="white"/>
<path d="M344.345 93.9624C345.326 97.8797 346.572 103.302 347.62 109.305C347.658 109.523 347.7 109.76 347.745 110.013C348.301 113.161 349.325 118.957 349.655 125.627C350.01 132.797 349.582 141.244 346.747 148.683C342.193 160.632 332.616 166.642 324.152 170.515C319.804 172.504 315.704 173.861 312.699 174.723C311.908 174.949 310.911 175.124 310.144 175.252C309.917 175.29 309.712 175.324 309.528 175.354C308.796 176.555 308.149 177.673 307.534 178.733C305.397 182.423 303.66 185.421 300.193 188.813L299.447 189.543L298.407 189.628C295.825 189.84 293.45 188.681 291.875 187.473C291.057 186.845 290.312 186.097 289.759 185.294C289.291 184.615 288.603 183.385 288.778 181.932L288.917 180.779L289.813 180.043C290.517 179.464 291.146 178.977 291.725 178.528C292.938 177.588 293.933 176.817 294.944 175.728C296.101 174.481 297.208 172.845 298.149 170.2C297.82 169.726 297.46 169.197 297.079 168.62C296.765 168.145 296.408 167.625 296.022 167.062C294.441 164.755 292.363 161.723 290.67 158.086C286.56 149.253 284.365 139.37 288.923 127.413C291.742 120.017 296.933 113.199 301.903 107.846C306.898 102.465 311.834 98.388 314.358 96.4768C319.276 92.7515 323.953 89.5918 327.396 87.3654C329.134 86.2413 332.013 84.4765 332.985 83.8817L333.009 83.867L333.033 83.8527L337.08 81.4822L340.264 79.6167L341.317 83.1576L342.616 87.5252L342.619 87.5378L342.623 87.5505L342.626 87.5607L342.627 87.5646C342.713 87.8646 342.966 88.7439 343.119 89.2977C343.426 90.4074 343.853 92.0004 344.345 93.9624ZM344.345 93.9624L341.538 94.6649" stroke="#07744C" stroke-width="5.79011"/>
</svg>
